<?xml version="1.0" encoding="utf-8"?><svg xmlns="http://www.w3.org/2000/svg" version="1.1" width="338px" height="434px" style="shape-rendering:geometricPrecision; text-rendering:geometricPrecision; image-rendering:optimizeQuality; fill-rule:evenodd; clip-rule:evenodd">
<g><path style="opacity:0.776" fill="#98a5b5" d="M 216.5,11.5 C 216.167,11.5 215.833,11.5 215.5,11.5C 214.833,10.1667 213.833,9.16667 212.5,8.5C 181.003,7.33597 149.336,7.16931 117.5,8C 116.667,8.83333 115.833,9.66667 115,10.5C 114.5,26.8299 114.333,43.1633 114.5,59.5C 113.504,43.3419 113.17,27.0085 113.5,10.5C 114.625,8.87121 115.959,7.37121 117.5,6C 149.167,5.33333 180.833,5.33333 212.5,6C 214.464,7.45095 215.797,9.28428 216.5,11.5 Z" /></g>
<g><path style="opacity:1" fill="#5f99cf" d="M 212.5,8.5 C 181.165,8.33335 149.832,8.50002 118.5,9C 117.944,9.38258 117.611,9.88258 117.5,10.5C 116.833,26.8333 116.167,43.1667 115.5,59.5C 115.167,59.5 114.833,59.5 114.5,59.5C 114.333,43.1633 114.5,26.8299 115,10.5C 115.833,9.66667 116.667,8.83333 117.5,8C 149.336,7.16931 181.003,7.33597 212.5,8.5 Z" /></g>
<g><path style="opacity:1" fill="#2977bf" d="M 212.5,8.5 C 213.833,9.16667 214.833,10.1667 215.5,11.5C 215.5,15.8333 215.5,20.1667 215.5,24.5C 214.675,20.3528 214.175,16.0195 214,11.5C 213.25,10.8742 212.416,10.3742 211.5,10C 180.125,9.18182 148.791,9.34849 117.5,10.5C 117.611,9.88258 117.944,9.38258 118.5,9C 149.832,8.50002 181.165,8.33335 212.5,8.5 Z" /></g>
<g><path style="opacity:1" fill="#0f68b9" d="M 215.5,24.5 C 232.802,26.4863 250.468,27.153 268.5,26.5C 268.833,26.5 269.167,26.5 269.5,26.5C 273.678,27.4065 278.012,28.2398 282.5,29C 286.124,31.6452 290.124,33.4785 294.5,34.5C 295.419,37.0892 297.086,39.0892 299.5,40.5C 301.758,45.5837 303.091,51.0837 303.5,57C 302.14,63.4299 301.474,69.9299 301.5,76.5C 299.746,81.0711 297.079,85.0711 293.5,88.5C 287.153,91.1925 280.82,93.8592 274.5,96.5C 274.167,96.5 273.833,96.5 273.5,96.5C 258.452,96.8012 243.452,96.4678 228.5,95.5C 227.167,91.1667 227.167,86.8333 228.5,82.5C 228.5,81.1667 229.167,80.5 230.5,80.5C 231.167,80.5 231.833,80.5 232.5,80.5C 244.838,80.6665 257.171,80.4999 269.5,80C 270.737,79.7679 271.737,79.2679 272.5,78.5C 274.517,77.4706 276.517,76.4706 278.5,75.5C 278.833,75.5 279.167,75.5 279.5,75.5C 282.812,74.9139 284.646,72.9139 285,69.5C 285.191,63.9171 285.691,58.4171 286.5,53C 284.963,51.8904 284.297,50.3904 284.5,48.5C 283.178,48.33 282.011,48.6634 281,49.5C 280.184,48.1772 279.017,47.5106 277.5,47.5C 277.426,45.5891 276.426,44.4224 274.5,44C 255.178,42.7717 235.845,42.4384 216.5,43C 216,43.5 215.5,44 215,44.5C 214.5,50.8246 214.334,57.1579 214.5,63.5C 213.711,63.7828 213.044,64.2828 212.5,65C 207.833,65.3333 203.167,65.6667 198.5,66C 198,66.5 197.5,67 197,67.5C 196.5,76.4938 196.334,85.4938 196.5,94.5C 196.167,95.5 195.5,96.1667 194.5,96.5C 187.711,95.899 181.211,96.5657 175,98.5C 174.833,118.508 174.333,138.508 173.5,158.5C 171.947,160.265 171.614,162.098 172.5,164C 171.167,164.333 169.833,164.667 168.5,165C 167.167,165.667 167.167,166.333 168.5,167C 166.866,167.494 165.199,167.66 163.5,167.5C 163.608,169.514 162.942,171.18 161.5,172.5C 157.502,173.042 154.168,174.709 151.5,177.5C 150.167,178.167 148.833,178.833 147.5,179.5C 144.756,180.072 143.923,181.738 145,184.5C 148.926,185.599 152.759,186.933 156.5,188.5C 158.553,188.402 160.22,189.069 161.5,190.5C 164.979,193.235 168.979,194.901 173.5,195.5C 174.5,195.833 175.167,196.5 175.5,197.5C 175.658,200.902 175.324,204.236 174.5,207.5C 169.009,210.522 164.009,209.855 159.5,205.5C 156.66,203.085 153.327,201.752 149.5,201.5C 140.995,198.751 133.329,194.751 126.5,189.5C 125.149,187.608 124.482,185.442 124.5,183C 124.917,180.502 125.251,178.002 125.5,175.5C 127.5,174.167 129.167,172.5 130.5,170.5C 136.715,168.277 142.715,165.61 148.5,162.5C 151.135,161.527 153.135,159.86 154.5,157.5C 156.062,157.267 157.395,156.6 158.5,155.5C 159.117,155.389 159.617,155.056 160,154.5C 160.829,135.995 160.662,117.662 159.5,99.5C 159.167,98.5 158.5,97.8333 157.5,97.5C 151.347,96.6721 145.013,96.1721 138.5,96C 137.299,95.0975 136.465,93.9308 136,92.5C 135.667,83.8333 135.333,75.1667 135,66.5C 129.593,65.5268 124.093,65.1934 118.5,65.5C 117.833,65.5 117.5,65.1667 117.5,64.5C 117.5,46.5 117.5,28.5 117.5,10.5C 148.791,9.34849 180.125,9.18182 211.5,10C 212.416,10.3742 213.25,10.8742 214,11.5C 214.175,16.0195 214.675,20.3528 215.5,24.5 Z" /></g>
<g><path style="opacity:1" fill="#2274bf" d="M 117.5,10.5 C 117.5,28.5 117.5,46.5 117.5,64.5C 115.787,63.3646 115.12,61.698 115.5,59.5C 116.167,43.1667 116.833,26.8333 117.5,10.5 Z" /></g>
<g><path style="opacity:0.714" fill="#5b7aa0" d="M 215.5,11.5 C 215.833,11.5 216.167,11.5 216.5,11.5C 216.335,15.1817 216.501,18.8484 217,22.5C 217.5,23 218,23.5 218.5,24C 238.167,24.3333 257.833,24.6667 277.5,25C 279.058,25.21 280.391,25.71 281.5,26.5C 277.5,26.5 273.5,26.5 269.5,26.5C 269.167,26.5 268.833,26.5 268.5,26.5C 250.931,25.8206 233.265,25.1539 215.5,24.5C 215.5,20.1667 215.5,15.8333 215.5,11.5 Z" /></g>
<g><path style="opacity:0.984" fill="#2063a5" d="M 215.5,24.5 C 233.265,25.1539 250.931,25.8206 268.5,26.5C 250.468,27.153 232.802,26.4863 215.5,24.5 Z" /></g>
<g><path style="opacity:0.655" fill="#8e9dad" d="M 282.5,26.5 C 294.958,29.9576 302.625,37.9576 305.5,50.5C 304.833,49.8333 304.167,49.1667 303.5,48.5C 303.104,45.279 301.771,42.6123 299.5,40.5C 298.581,37.9108 296.914,35.9108 294.5,34.5C 290.81,31.3251 286.81,28.6585 282.5,26.5 Z" /></g>
<g><path style="opacity:1" fill="#3270b0" d="M 269.5,26.5 C 273.5,26.5 277.5,26.5 281.5,26.5C 281.833,26.5 282.167,26.5 282.5,26.5C 286.81,28.6585 290.81,31.3251 294.5,34.5C 290.124,33.4785 286.124,31.6452 282.5,29C 278.012,28.2398 273.678,27.4065 269.5,26.5 Z" /></g>
<g><path style="opacity:0.98" fill="#4177ad" d="M 294.5,34.5 C 296.914,35.9108 298.581,37.9108 299.5,40.5C 297.086,39.0892 295.419,37.0892 294.5,34.5 Z" /></g>
<g><path style="opacity:1" fill="#3374b5" d="M 277.5,47.5 C 274.904,46.7347 272.237,46.4013 269.5,46.5C 262.933,45.799 256.267,45.1323 249.5,44.5C 239.008,43.3412 228.341,43.1745 217.5,44C 216.944,44.3826 216.611,44.8826 216.5,45.5C 215.833,51.5 215.167,57.5 214.5,63.5C 214.334,57.1579 214.5,50.8246 215,44.5C 215.5,44 216,43.5 216.5,43C 235.845,42.4384 255.178,42.7717 274.5,44C 276.426,44.4224 277.426,45.5891 277.5,47.5 Z" /></g>
<g><path style="opacity:1" fill="#558ec4" d="M 249.5,44.5 C 238.449,44.2114 227.449,44.5447 216.5,45.5C 216.611,44.8826 216.944,44.3826 217.5,44C 228.341,43.1745 239.008,43.3412 249.5,44.5 Z" /></g>
<g><path style="opacity:0.141" fill="#858d99" d="M 249.5,44.5 C 256.267,45.1323 262.933,45.799 269.5,46.5C 251.757,46.181 234.09,46.5143 216.5,47.5C 216.5,46.8333 216.5,46.1667 216.5,45.5C 227.449,44.5447 238.449,44.2114 249.5,44.5 Z" /></g>
<g><path style="opacity:0.702" fill="#909dab" d="M 269.5,46.5 C 272.237,46.4013 274.904,46.7347 277.5,47.5C 279.909,49.9024 281.909,52.5691 283.5,55.5C 283.5,56.5 283.5,57.5 283.5,58.5C 280.35,52.6797 275.683,48.6797 269.5,46.5 Z" /></g>
<g><path style="opacity:1" fill="#2269b0" d="M 277.5,47.5 C 279.017,47.5106 280.184,48.1772 281,49.5C 282.011,48.6634 283.178,48.33 284.5,48.5C 284.297,50.3904 284.963,51.8904 286.5,53C 285.691,58.4171 285.191,63.9171 285,69.5C 284.646,72.9139 282.812,74.9139 279.5,75.5C 284.33,69.4799 285.663,62.8133 283.5,55.5C 281.909,52.5691 279.909,49.9024 277.5,47.5 Z" /></g>
<g><path style="opacity:0.714" fill="#6d88a6" d="M 303.5,48.5 C 304.167,49.1667 304.833,49.8333 305.5,50.5C 306.468,52.6074 306.802,54.9407 306.5,57.5C 306.806,60.3854 306.473,63.0521 305.5,65.5C 305.813,61.9581 305.479,58.6248 304.5,55.5C 304.326,53.139 303.993,50.8056 303.5,48.5 Z" /></g>
<g><path style="opacity:0.62" fill="#597ca1" d="M 283.5,55.5 C 285.663,62.8133 284.33,69.4799 279.5,75.5C 279.167,75.5 278.833,75.5 278.5,75.5C 278.5,75.1667 278.5,74.8333 278.5,74.5C 279.925,73.078 280.925,71.4113 281.5,69.5C 283.091,66.0388 283.758,62.3721 283.5,58.5C 283.5,57.5 283.5,56.5 283.5,55.5 Z" /></g>
<g><path style="opacity:1" fill="#537aa3" d="M 114.5,59.5 C 114.833,59.5 115.167,59.5 115.5,59.5C 115.12,61.698 115.787,63.3646 117.5,64.5C 117.5,65.1667 117.833,65.5 118.5,65.5C 118.5,65.8333 118.5,66.1667 118.5,66.5C 115.013,65.5554 113.68,63.2221 114.5,59.5 Z" /></g>
<g><path style="opacity:1" fill="#236fb9" d="M 299.5,40.5 C 301.771,42.6123 303.104,45.279 303.5,48.5C 303.993,50.8056 304.326,53.139 304.5,55.5C 304.593,61.8627 304.26,68.1961 303.5,74.5C 303.5,74.8333 303.5,75.1667 303.5,75.5C 302.833,75.8333 302.167,76.1667 301.5,76.5C 301.474,69.9299 302.14,63.4299 303.5,57C 303.091,51.0837 301.758,45.5837 299.5,40.5 Z" /></g>
<g><path style="opacity:0.286" fill="#848c97" d="M 113.5,10.5 C 113.17,27.0085 113.504,43.3419 114.5,59.5C 113.68,63.2221 115.013,65.5554 118.5,66.5C 123.64,67.4881 128.974,67.8214 134.5,67.5C 134.5,76.5 134.5,85.5 134.5,94.5C 133.671,86.3434 133.171,78.0101 133,69.5C 127.917,68.6929 122.75,68.1929 117.5,68C 115.714,67.2155 114.214,66.0488 113,64.5C 112.171,46.3286 112.338,28.3286 113.5,10.5 Z" /></g>
<g><path style="opacity:0.285" fill="#6f8299" d="M 216.5,45.5 C 216.5,46.1667 216.5,46.8333 216.5,47.5C 216.666,53.5092 216.499,59.5092 216,65.5C 215.097,66.7014 213.931,67.5348 212.5,68C 207.914,68.1971 203.414,68.6971 199,69.5C 198.5,77.8267 198.334,86.16 198.5,94.5C 198.167,94.5 197.833,94.5 197.5,94.5C 197.334,85.8269 197.5,77.1603 198,68.5C 198.5,68 199,67.5 199.5,67C 204.167,66.6667 208.833,66.3333 213.5,66C 214.252,65.3292 214.586,64.4959 214.5,63.5C 215.167,57.5 215.833,51.5 216.5,45.5 Z" /></g>
<g><path style="opacity:0.851" fill="#4476aa" d="M 304.5,55.5 C 305.479,58.6248 305.813,61.9581 305.5,65.5C 305.58,68.7814 304.913,71.7814 303.5,74.5C 304.26,68.1961 304.593,61.8627 304.5,55.5 Z" /></g>
<g><path style="opacity:0.969" fill="#3d6ea5" d="M 118.5,65.5 C 124.093,65.1934 129.593,65.5268 135,66.5C 135.333,75.1667 135.667,83.8333 136,92.5C 136.465,93.9308 137.299,95.0975 138.5,96C 145.013,96.1721 151.347,96.6721 157.5,97.5C 151.5,97.5 145.5,97.5 139.5,97.5C 137.589,96.925 135.922,95.925 134.5,94.5C 134.5,85.5 134.5,76.5 134.5,67.5C 128.974,67.8214 123.64,67.4881 118.5,66.5C 118.5,66.1667 118.5,65.8333 118.5,65.5 Z" /></g>
<g><path style="opacity:0.459" fill="#a6b4c3" d="M 281.5,69.5 C 280.925,71.4113 279.925,73.078 278.5,74.5C 277.833,74.5 277.167,74.5 276.5,74.5C 277.833,72.5 279.5,70.8333 281.5,69.5 Z" /></g>
<g><path style="opacity:0.263" fill="#8e99a5" d="M 306.5,57.5 C 308.375,68.4511 305.875,78.4511 299,87.5C 297.223,89.7899 295.056,91.4566 292.5,92.5C 292.5,91.8333 292.5,91.1667 292.5,90.5C 292.5,89.8333 292.833,89.5 293.5,89.5C 298.303,85.8985 301.636,81.2318 303.5,75.5C 303.5,75.1667 303.5,74.8333 303.5,74.5C 304.913,71.7814 305.58,68.7814 305.5,65.5C 306.473,63.0521 306.806,60.3854 306.5,57.5 Z" /></g>
<g><path style="opacity:0.427" fill="#8893a2" d="M 276.5,74.5 C 277.167,74.5 277.833,74.5 278.5,74.5C 278.5,74.8333 278.5,75.1667 278.5,75.5C 276.517,76.4706 274.517,77.4706 272.5,78.5C 271.167,78.5 269.833,78.5 268.5,78.5C 256.162,78.3335 243.829,78.5001 231.5,79C 230.944,79.3826 230.611,79.8826 230.5,80.5C 229.167,80.5 228.5,81.1667 228.5,82.5C 227.883,82.6107 227.383,82.944 227,83.5C 226.333,87.1667 226.333,90.8333 227,94.5C 227.383,95.056 227.883,95.3893 228.5,95.5C 229.659,97.2503 231.326,98.2503 233.5,98.5C 233.5,98.8333 233.5,99.1667 233.5,99.5C 228.967,99.8232 226.134,97.8232 225,93.5C 223.528,87.9245 224.695,83.0911 228.5,79C 242.073,77.7018 255.739,77.0351 269.5,77C 272.03,76.6207 274.363,75.7874 276.5,74.5 Z" /></g>
<g><path style="opacity:0.894" fill="#6181a7" d="M 268.5,78.5 C 256.5,79.1667 244.5,79.8333 232.5,80.5C 231.833,80.5 231.167,80.5 230.5,80.5C 230.611,79.8826 230.944,79.3826 231.5,79C 243.829,78.5001 256.162,78.3335 268.5,78.5 Z" /></g>
<g><path style="opacity:1" fill="#2b6cac" d="M 268.5,78.5 C 269.833,78.5 271.167,78.5 272.5,78.5C 271.737,79.2679 270.737,79.7679 269.5,80C 257.171,80.4999 244.838,80.6665 232.5,80.5C 244.5,79.8333 256.5,79.1667 268.5,78.5 Z" /></g>
<g><path style="opacity:0.894" fill="#3b76b3" d="M 214.5,63.5 C 214.586,64.4959 214.252,65.3292 213.5,66C 208.833,66.3333 204.167,66.6667 199.5,67C 199,67.5 198.5,68 198,68.5C 197.5,77.1603 197.334,85.8269 197.5,94.5C 197.167,94.5 196.833,94.5 196.5,94.5C 196.334,85.4938 196.5,76.4938 197,67.5C 197.5,67 198,66.5 198.5,66C 203.167,65.6667 207.833,65.3333 212.5,65C 213.044,64.2828 213.711,63.7828 214.5,63.5 Z" /></g>
<g><path style="opacity:0.902" fill="#4878a9" d="M 303.5,75.5 C 301.636,81.2318 298.303,85.8985 293.5,89.5C 293.5,89.1667 293.5,88.8333 293.5,88.5C 297.079,85.0711 299.746,81.0711 301.5,76.5C 302.167,76.1667 302.833,75.8333 303.5,75.5 Z" /></g>
<g><path style="opacity:1" fill="#4279b0" d="M 228.5,82.5 C 227.167,86.8333 227.167,91.1667 228.5,95.5C 227.883,95.3893 227.383,95.056 227,94.5C 226.333,90.8333 226.333,87.1667 227,83.5C 227.383,82.944 227.883,82.6107 228.5,82.5 Z" /></g>
<g><path style="opacity:1" fill="#2c71b6" d="M 293.5,88.5 C 293.5,88.8333 293.5,89.1667 293.5,89.5C 292.833,89.5 292.5,89.8333 292.5,90.5C 288.97,92.5112 285.303,94.3446 281.5,96C 279.19,96.4966 276.857,96.6633 274.5,96.5C 280.82,93.8592 287.153,91.1925 293.5,88.5 Z" /></g>
<g><path style="opacity:1" fill="#366ca7" d="M 228.5,95.5 C 243.452,96.4678 258.452,96.8012 273.5,96.5C 273.389,97.1174 273.056,97.6174 272.5,98C 259.504,98.4999 246.504,98.6666 233.5,98.5C 231.326,98.2503 229.659,97.2503 228.5,95.5 Z" /></g>
<g><path style="opacity:0.475" fill="#788799" d="M 292.5,90.5 C 292.5,91.1667 292.5,91.8333 292.5,92.5C 287.134,96.1247 281.134,98.2913 274.5,99C 260.837,99.4999 247.171,99.6666 233.5,99.5C 233.5,99.1667 233.5,98.8333 233.5,98.5C 246.504,98.6666 259.504,98.4999 272.5,98C 273.056,97.6174 273.389,97.1174 273.5,96.5C 273.833,96.5 274.167,96.5 274.5,96.5C 276.857,96.6633 279.19,96.4966 281.5,96C 285.303,94.3446 288.97,92.5112 292.5,90.5 Z" /></g>
<g><path style="opacity:0.333" fill="#728193" d="M 196.5,94.5 C 196.833,94.5 197.167,94.5 197.5,94.5C 197.833,94.5 198.167,94.5 198.5,94.5C 198.084,96.7525 196.751,98.2525 194.5,99C 188.917,99.1911 183.417,99.6911 178,100.5C 177.5,121.164 177.333,141.831 177.5,162.5C 177.167,162.5 176.833,162.5 176.5,162.5C 176.5,141.5 176.5,120.5 176.5,99.5C 181.651,98.6733 186.984,98.1733 192.5,98C 193.416,97.7216 194.082,97.2216 194.5,96.5C 195.5,96.1667 196.167,95.5 196.5,94.5 Z" /></g>
<g><path style="opacity:0.925" fill="#4b73a1" d="M 139.5,97.5 C 145.5,97.5 151.5,97.5 157.5,97.5C 158.5,97.8333 159.167,98.5 159.5,99.5C 159.83,117.674 159.497,135.674 158.5,153.5C 158.667,135.497 158.5,117.497 158,99.5C 151.734,98.8514 145.567,98.1847 139.5,97.5 Z" /></g>
<g><path style="opacity:0.525" fill="#8496aa" d="M 134.5,94.5 C 135.922,95.925 137.589,96.925 139.5,97.5C 145.567,98.1847 151.734,98.8514 158,99.5C 158.5,117.497 158.667,135.497 158.5,153.5C 158.5,154.167 158.5,154.833 158.5,155.5C 157.395,156.6 156.062,157.267 154.5,157.5C 155.122,156.373 155.955,155.373 157,154.5C 157.667,136.5 157.667,118.5 157,100.5C 150.915,99.6883 144.748,99.1883 138.5,99C 136.249,98.2525 134.916,96.7525 134.5,94.5 Z" /></g>
<g><path style="opacity:1" fill="#2068ae" d="M 159.5,99.5 C 160.662,117.662 160.829,135.995 160,154.5C 159.617,155.056 159.117,155.389 158.5,155.5C 158.5,154.833 158.5,154.167 158.5,153.5C 159.497,135.674 159.83,117.674 159.5,99.5 Z" /></g>
<g><path style="opacity:1" fill="#256bb1" d="M 194.5,96.5 C 194.082,97.2216 193.416,97.7216 192.5,98C 186.984,98.1733 181.651,98.6733 176.5,99.5C 175.668,119.996 175.168,140.663 175,161.5C 174.209,162.745 173.709,164.078 173.5,165.5C 170.165,168.839 166.165,171.172 161.5,172.5C 162.942,171.18 163.608,169.514 163.5,167.5C 165.199,167.66 166.866,167.494 168.5,167C 167.167,166.333 167.167,165.667 168.5,165C 169.833,164.667 171.167,164.333 172.5,164C 171.614,162.098 171.947,160.265 173.5,158.5C 174.333,138.508 174.833,118.508 175,98.5C 181.211,96.5657 187.711,95.899 194.5,96.5 Z" /></g>
<g><path style="opacity:0.686" fill="#8a98a9" d="M 127.5,150.5 C 127.833,149.833 128.167,149.167 128.5,148.5C 129.492,148.672 130.158,148.338 130.5,147.5C 137.352,147.111 141.019,143.611 141.5,137C 141.486,135.615 141.152,134.449 140.5,133.5C 139.206,130.264 136.706,128.931 133,129.5C 129.39,129.427 126.223,130.427 123.5,132.5C 117.719,134.557 112.053,136.89 106.5,139.5C 106.5,139.167 106.5,138.833 106.5,138.5C 113.43,134.346 120.763,130.846 128.5,128C 140.918,126.413 145.418,131.58 142,143.5C 137.618,146.774 132.785,149.108 127.5,150.5 Z" /></g>
<g><path style="opacity:1" fill="#3d75b1" d="M 140.5,133.5 C 138.422,131.548 135.922,130.548 133,130.5C 129.859,131.322 126.693,131.989 123.5,132.5C 126.223,130.427 129.39,129.427 133,129.5C 136.706,128.931 139.206,130.264 140.5,133.5 Z" /></g>
<g><path style="opacity:1" fill="#1169ba" d="M 202.5,129.5 C 205.744,130.463 208.744,131.796 211.5,133.5C 214.235,136.201 217.569,137.868 221.5,138.5C 225.17,142.665 229.837,144.665 235.5,144.5C 239.644,147.568 244.311,149.568 249.5,150.5C 250.167,150.5 250.833,150.5 251.5,150.5C 252.791,150.263 253.791,150.596 254.5,151.5C 255.183,153.176 256.517,153.843 258.5,153.5C 259.348,155.093 260.681,156.26 262.5,157C 263.448,157.483 264.448,157.649 265.5,157.5C 265.833,157.5 266.167,157.5 266.5,157.5C 266.944,159.113 267.944,160.28 269.5,161C 272.768,162.15 276.101,162.984 279.5,163.5C 281.168,165.34 282.668,167.34 284,169.5C 286.685,169.173 289.518,169.173 292.5,169.5C 293.29,170.794 294.29,171.961 295.5,173C 299.62,173.862 303.62,175.029 307.5,176.5C 310.236,179.032 313.57,180.365 317.5,180.5C 317.833,180.5 318.167,180.5 318.5,180.5C 319.105,183.127 319.605,185.793 320,188.5C 320.5,242.832 320.667,297.166 320.5,351.5C 320.5,352.167 320.5,352.833 320.5,353.5C 320.167,354.167 319.833,354.833 319.5,355.5C 311.413,358.148 303.413,360.981 295.5,364C 295.833,364.333 296.167,364.667 296.5,365C 294.119,365.223 292.453,366.39 291.5,368.5C 291.167,368.5 290.833,368.5 290.5,368.5C 284.697,370.037 279.031,372.037 273.5,374.5C 270.832,375.513 268.832,377.179 267.5,379.5C 267.167,379.5 266.833,379.5 266.5,379.5C 261.999,379.578 258.332,381.245 255.5,384.5C 252.157,385.224 248.824,386.057 245.5,387C 244.748,387.671 244.414,388.504 244.5,389.5C 241.438,389.844 238.438,390.511 235.5,391.5C 235.137,392.183 234.804,392.85 234.5,393.5C 232.146,393.838 229.813,394.338 227.5,395C 223.296,397.938 218.963,400.438 214.5,402.5C 209.241,402.631 204.907,404.631 201.5,408.5C 200.127,408.343 198.793,408.51 197.5,409C 194.986,409.881 192.986,411.381 191.5,413.5C 188.169,413.018 185.503,414.018 183.5,416.5C 181.716,416.893 180.05,417.559 178.5,418.5C 174.041,419.976 169.374,420.642 164.5,420.5C 161.52,419.677 158.853,418.343 156.5,416.5C 153.609,414.277 150.276,412.944 146.5,412.5C 136.008,407.582 125.342,403.249 114.5,399.5C 112.297,397.9 109.964,396.567 107.5,395.5C 106.093,393.386 104.093,391.886 101.5,391C 99.8659,390.506 98.1992,390.34 96.5,390.5C 94.4214,390.029 92.4214,389.363 90.5,388.5C 88.8243,386.166 86.491,385.166 83.5,385.5C 80.8651,383.177 77.8651,381.344 74.5,380C 69.4523,378.042 64.4523,376.209 59.5,374.5C 56.8651,372.177 53.8651,370.344 50.5,369C 49.2068,368.51 47.8734,368.343 46.5,368.5C 43.7428,367.488 41.0761,366.488 38.5,365.5C 36.8243,363.166 34.491,362.166 31.5,362.5C 29.9255,360.059 27.5921,358.893 24.5,359C 22.2951,357.294 19.9617,355.794 17.5,354.5C 16.0451,352.78 15.2117,350.78 15,348.5C 14.5,294.168 14.3333,239.834 14.5,185.5C 14.5,185.167 14.5,184.833 14.5,184.5C 16.1667,183.167 17.8333,181.833 19.5,180.5C 24.7173,178.385 30.0506,177.719 35.5,178.5C 36.5,178.167 37.1667,177.5 37.5,176.5C 36.3595,175.575 36.3595,174.741 37.5,174C 38.7839,173.316 39.9505,173.483 41,174.5C 44.033,172.139 47.3663,170.139 51,168.5C 52.221,169.272 53.221,170.272 54,171.5C 53.9382,167.623 55.4382,164.623 58.5,162.5C 65.5266,158.656 72.8599,155.323 80.5,152.5C 83.1062,151.864 85.6062,151.864 88,152.5C 89.3597,149.977 91.193,147.977 93.5,146.5C 97.6841,146.408 101.017,144.741 103.5,141.5C 109.103,140.536 114.437,138.702 119.5,136C 121.093,135.051 122.426,133.885 123.5,132.5C 126.693,131.989 129.859,131.322 133,130.5C 135.922,130.548 138.422,131.548 140.5,133.5C 140.453,136.568 139.953,139.568 139,142.5C 135.989,144.081 133.156,145.747 130.5,147.5C 130.158,148.338 129.492,148.672 128.5,148.5C 121.971,150.222 115.971,152.888 110.5,156.5C 109.29,156.932 108.29,157.599 107.5,158.5C 104.545,159.159 101.545,159.492 98.5,159.5C 98.5,160.5 98.5,161.5 98.5,162.5C 95.7594,162.707 93.4261,163.707 91.5,165.5C 85.4274,165.737 80.4274,168.07 76.5,172.5C 73.911,172.461 71.911,173.461 70.5,175.5C 69.391,175.557 68.391,175.89 67.5,176.5C 63.0137,178.286 58.347,179.62 53.5,180.5C 50.8448,182.494 47.8448,183.994 44.5,185C 41.1558,186.894 39.8224,189.727 40.5,193.5C 49.5778,196.304 58.5778,199.304 67.5,202.5C 71.4081,203.769 75.0748,205.435 78.5,207.5C 79.635,208.474 80.635,209.641 81.5,211C 84.5285,211.539 87.5285,212.206 90.5,213C 94.3299,215.511 98.3299,217.845 102.5,220C 105.063,221.079 107.729,221.579 110.5,221.5C 113.241,221.707 115.574,222.707 117.5,224.5C 117.343,225.873 117.51,227.207 118,228.5C 120.128,228.073 122.295,228.573 124.5,230C 126.473,230.495 128.473,230.662 130.5,230.5C 137.766,232.403 144.766,235.069 151.5,238.5C 156.357,241.414 161.357,244.247 166.5,247C 169.868,247.543 173.201,247.376 176.5,246.5C 176.5,245.5 176.5,244.5 176.5,243.5C 180.203,241.321 184.203,239.655 188.5,238.5C 194.175,237.494 199.175,235.161 203.5,231.5C 205.967,231.245 207.967,230.245 209.5,228.5C 213.475,228.514 216.808,227.181 219.5,224.5C 220.873,224.657 222.207,224.49 223.5,224C 225.993,222.581 228.326,221.081 230.5,219.5C 236.374,218.225 241.708,215.892 246.5,212.5C 251.824,211.843 256.49,209.843 260.5,206.5C 264.327,206.248 267.66,204.915 270.5,202.5C 271.965,201.263 273.632,200.263 275.5,199.5C 282.109,197.743 288.443,195.41 294.5,192.5C 294.715,190.821 294.048,189.821 292.5,189.5C 291.167,188.5 289.833,187.5 288.5,186.5C 285.503,183.504 281.836,181.837 277.5,181.5C 277.167,181.5 276.833,181.5 276.5,181.5C 276.063,179.926 275.063,178.759 273.5,178C 268.899,176.194 264.233,174.694 259.5,173.5C 253.864,171.678 248.531,169.345 243.5,166.5C 240.66,164.085 237.327,162.752 233.5,162.5C 231.181,162.008 229.181,161.008 227.5,159.5C 225.898,157.926 223.898,157.259 221.5,157.5C 219.316,155.415 216.649,154.415 213.5,154.5C 211.165,151.835 208.165,150.502 204.5,150.5C 201.485,148.326 198.151,146.659 194.5,145.5C 193.559,143.95 192.893,142.284 192.5,140.5C 192.356,133.645 195.69,129.978 202.5,129.5 Z M 31.5,208.5 C 47.2799,214.557 62.9465,220.89 78.5,227.5C 82.4156,230.29 86.749,232.29 91.5,233.5C 93.4261,235.293 95.7594,236.293 98.5,236.5C 117.745,244.812 137.079,253.145 156.5,261.5C 157.122,262.627 157.955,263.627 159,264.5C 159.5,308.499 159.667,352.499 159.5,396.5C 147.948,392.392 136.615,387.725 125.5,382.5C 112.827,377.163 100.16,371.83 87.5,366.5C 82.693,363.1 77.3597,360.766 71.5,359.5C 58.1686,353.659 45.002,347.325 32,340.5C 31.5,296.501 31.3333,252.501 31.5,208.5 Z M 304.5,208.5 C 304.667,252.501 304.5,296.501 304,340.5C 302.624,341.705 301.458,343.038 300.5,344.5C 294.725,346.553 289.059,348.887 283.5,351.5C 278.167,353.27 273.167,355.603 268.5,358.5C 238.717,370.891 209.051,383.558 179.5,396.5C 179.333,352.499 179.5,308.499 180,264.5C 181.045,263.627 181.878,262.627 182.5,261.5C 184.153,261.34 185.486,260.674 186.5,259.5C 199.472,254.344 212.138,248.678 224.5,242.5C 250.921,230.582 277.588,219.249 304.5,208.5 Z" /></g>
<g><path style="opacity:1" fill="#3872af" d="M 123.5,132.5 C 122.426,133.885 121.093,135.051 119.5,136C 114.437,138.702 109.103,140.536 103.5,141.5C 103.973,140.094 104.973,139.427 106.5,139.5C 112.053,136.89 117.719,134.557 123.5,132.5 Z" /></g>
<g><path style="opacity:0.329" fill="#929ca9" d="M 251.5,150.5 C 250.833,150.5 250.167,150.5 249.5,150.5C 245.123,147.982 240.456,145.982 235.5,144.5C 231.256,141.529 226.59,139.529 221.5,138.5C 218.474,136.32 215.14,134.653 211.5,133.5C 208.744,131.796 205.744,130.463 202.5,129.5C 200.712,128.378 198.712,128.211 196.5,129C 191.762,131.84 190.428,135.673 192.5,140.5C 192.893,142.284 193.559,143.95 194.5,145.5C 192.224,145.244 191.057,143.91 191,141.5C 188.833,130.333 193.333,125.833 204.5,128C 219.982,134.576 235.315,141.409 250.5,148.5C 251.298,148.957 251.631,149.624 251.5,150.5 Z" /></g>
<g><path style="opacity:1" fill="#3b71aa" d="M 211.5,133.5 C 215.14,134.653 218.474,136.32 221.5,138.5C 217.569,137.868 214.235,136.201 211.5,133.5 Z" /></g>
<g><path style="opacity:1" fill="#547eac" d="M 202.5,129.5 C 195.69,129.978 192.356,133.645 192.5,140.5C 190.428,135.673 191.762,131.84 196.5,129C 198.712,128.211 200.712,128.378 202.5,129.5 Z" /></g>
<g><path style="opacity:1" fill="#2e6fb2" d="M 221.5,138.5 C 226.59,139.529 231.256,141.529 235.5,144.5C 229.837,144.665 225.17,142.665 221.5,138.5 Z" /></g>
<g><path style="opacity:0.094" fill="#858e9a" d="M 106.5,138.5 C 106.5,138.833 106.5,139.167 106.5,139.5C 104.973,139.427 103.973,140.094 103.5,141.5C 99.9476,142.791 96.6142,144.458 93.5,146.5C 89.5554,147.795 85.5554,149.129 81.5,150.5C 82.1223,148.665 83.4556,147.498 85.5,147C 92.4496,143.855 99.4496,141.021 106.5,138.5 Z" /></g>
<g><path style="opacity:0.976" fill="#3e6fa5" d="M 140.5,133.5 C 141.152,134.449 141.486,135.615 141.5,137C 141.019,143.611 137.352,147.111 130.5,147.5C 133.156,145.747 135.989,144.081 139,142.5C 139.953,139.568 140.453,136.568 140.5,133.5 Z" /></g>
<g><path style="opacity:1" fill="#316caa" d="M 103.5,141.5 C 101.017,144.741 97.6841,146.408 93.5,146.5C 96.6142,144.458 99.9476,142.791 103.5,141.5 Z" /></g>
<g><path style="opacity:0.478" fill="#96a5b7" d="M 194.5,145.5 C 198.151,146.659 201.485,148.326 204.5,150.5C 200.58,149.873 197.247,148.207 194.5,145.5 Z" /></g>
<g><path style="opacity:0.867" fill="#4074a8" d="M 176.5,99.5 C 176.5,120.5 176.5,141.5 176.5,162.5C 175.728,163.694 174.728,164.694 173.5,165.5C 173.709,164.078 174.209,162.745 175,161.5C 175.168,140.663 175.668,119.996 176.5,99.5 Z" /></g>
<g><path style="opacity:0.988" fill="#3a6ea5" d="M 235.5,144.5 C 240.456,145.982 245.123,147.982 249.5,150.5C 244.311,149.568 239.644,147.568 235.5,144.5 Z" /></g>
<g><path style="opacity:0.875" fill="#7d95b4" d="M 204.5,150.5 C 208.165,150.502 211.165,151.835 213.5,154.5C 210.088,153.958 207.088,152.625 204.5,150.5 Z" /></g>
<g><path style="opacity:1" fill="#296db2" d="M 93.5,146.5 C 91.193,147.977 89.3597,149.977 88,152.5C 85.6062,151.864 83.1062,151.864 80.5,152.5C 80.8333,151.833 81.1667,151.167 81.5,150.5C 85.5554,149.129 89.5554,147.795 93.5,146.5 Z" /></g>
<g><path style="opacity:1" fill="#3b73ae" d="M 128.5,148.5 C 128.167,149.167 127.833,149.833 127.5,150.5C 123.832,151.556 120.165,152.722 116.5,154C 115.058,154.377 114.058,155.21 113.5,156.5C 112.5,156.5 111.5,156.5 110.5,156.5C 115.971,152.888 121.971,150.222 128.5,148.5 Z" /></g>
<g><path style="opacity:0.82" fill="#7796ba" d="M 254.5,151.5 C 256.153,151.66 257.486,152.326 258.5,153.5C 256.517,153.843 255.183,153.176 254.5,151.5 Z" /></g>
<g><path style="opacity:0.639" fill="#8ba3bf" d="M 127.5,150.5 C 123.156,153.065 118.49,155.065 113.5,156.5C 114.058,155.21 115.058,154.377 116.5,154C 120.165,152.722 123.832,151.556 127.5,150.5 Z" /></g>
<g><path style="opacity:0.863" fill="#7d91aa" d="M 213.5,154.5 C 216.649,154.415 219.316,155.415 221.5,157.5C 222.167,158.167 222.833,158.833 223.5,159.5C 219.891,158.362 216.558,156.696 213.5,154.5 Z" /></g>
<g><path style="opacity:1" fill="#6483aa" d="M 258.5,153.5 C 260.786,153.595 262.786,154.262 264.5,155.5C 264.833,156.167 265.167,156.833 265.5,157.5C 264.448,157.649 263.448,157.483 262.5,157C 260.681,156.26 259.348,155.093 258.5,153.5 Z" /></g>
<g><path style="opacity:0.373" fill="#96a5b6" d="M 264.5,155.5 C 266.153,155.66 267.486,156.326 268.5,157.5C 267.833,157.5 267.167,157.5 266.5,157.5C 266.167,157.5 265.833,157.5 265.5,157.5C 265.167,156.833 264.833,156.167 264.5,155.5 Z" /></g>
<g><path style="opacity:1" fill="#4a74a5" d="M 221.5,157.5 C 223.898,157.259 225.898,157.926 227.5,159.5C 226.167,159.5 224.833,159.5 223.5,159.5C 222.833,158.833 222.167,158.167 221.5,157.5 Z" /></g>
<g><path style="opacity:0.631" fill="#90a1b4" d="M 268.5,157.5 C 271.912,158.042 274.912,159.375 277.5,161.5C 274.057,160.941 271.057,159.607 268.5,157.5 Z" /></g>
<g><path style="opacity:1" fill="#3770ae" d="M 107.5,158.5 C 104.697,160.215 101.697,161.548 98.5,162.5C 98.5,161.5 98.5,160.5 98.5,159.5C 101.545,159.492 104.545,159.159 107.5,158.5 Z" /></g>
<g><path style="opacity:0.737" fill="#7690af" d="M 81.5,150.5 C 81.1667,151.167 80.8333,151.833 80.5,152.5C 72.8599,155.323 65.5266,158.656 58.5,162.5C 54.2662,163.617 50.2662,165.284 46.5,167.5C 43.279,167.896 40.6123,169.229 38.5,171.5C 32.0471,173.893 25.7137,176.56 19.5,179.5C 19.1667,179.5 18.8333,179.5 18.5,179.5C 18.5,179.167 18.5,178.833 18.5,178.5C 39.1272,168.399 60.1272,159.066 81.5,150.5 Z" /></g>
<g><path style="opacity:0.976" fill="#597fae" d="M 154.5,157.5 C 153.135,159.86 151.135,161.527 148.5,162.5C 149.167,161.5 149.833,160.5 150.5,159.5C 151.514,158.326 152.847,157.66 154.5,157.5 Z" /></g>
<g><path style="opacity:1" fill="#3c72ad" d="M 266.5,157.5 C 267.167,157.5 267.833,157.5 268.5,157.5C 271.057,159.607 274.057,160.941 277.5,161.5C 277.833,161.5 278.167,161.5 278.5,161.5C 278.833,162.167 279.167,162.833 279.5,163.5C 276.101,162.984 272.768,162.15 269.5,161C 267.944,160.28 266.944,159.113 266.5,157.5 Z" /></g>
<g><path style="opacity:1" fill="#4271a6" d="M 233.5,162.5 C 237.327,162.752 240.66,164.085 243.5,166.5C 242.167,166.5 240.833,166.5 239.5,166.5C 237.5,165.167 235.5,163.833 233.5,162.5 Z" /></g>
<g><path style="opacity:0.369" fill="#92a0b1" d="M 278.5,161.5 C 283.081,163.13 287.414,165.13 291.5,167.5C 287.438,166.368 283.438,165.035 279.5,163.5C 279.167,162.833 278.833,162.167 278.5,161.5 Z" /></g>
<g><path style="opacity:0.02" fill="#8d95a1" d="M 223.5,159.5 C 224.833,159.5 226.167,159.5 227.5,159.5C 229.181,161.008 231.181,162.008 233.5,162.5C 235.5,163.833 237.5,165.167 239.5,166.5C 233.77,164.929 228.437,162.596 223.5,159.5 Z" /></g>
<g><path style="opacity:0.82" fill="#446fa1" d="M 98.5,162.5 C 96.5739,164.293 94.2406,165.293 91.5,165.5C 93.4261,163.707 95.7594,162.707 98.5,162.5 Z" /></g>
<g><path style="opacity:0.694" fill="#8390a1" d="M 239.5,166.5 C 240.833,166.5 242.167,166.5 243.5,166.5C 248.531,169.345 253.864,171.678 259.5,173.5C 264.918,176.537 270.584,179.203 276.5,181.5C 276.833,181.5 277.167,181.5 277.5,181.5C 280.74,183.951 284.407,185.618 288.5,186.5C 289.833,187.5 291.167,188.5 292.5,189.5C 274.356,182.791 256.689,175.124 239.5,166.5 Z" /></g>
<g><path style="opacity:1" fill="#316dae" d="M 91.5,165.5 C 86.6894,168.07 81.6894,170.403 76.5,172.5C 80.4274,168.07 85.4274,165.737 91.5,165.5 Z" /></g>
<g><path style="opacity:1" fill="#3170b2" d="M 279.5,163.5 C 283.438,165.035 287.438,166.368 291.5,167.5C 291.833,168.167 292.167,168.833 292.5,169.5C 289.518,169.173 286.685,169.173 284,169.5C 282.668,167.34 281.168,165.34 279.5,163.5 Z" /></g>
<g><path style="opacity:0.925" fill="#728fb2" d="M 150.5,159.5 C 149.833,160.5 149.167,161.5 148.5,162.5C 142.715,165.61 136.715,168.277 130.5,170.5C 136.548,165.807 143.215,162.141 150.5,159.5 Z" /></g>
<g><path style="opacity:0.412" fill="#93a1b3" d="M 291.5,167.5 C 293.97,167.654 295.97,168.654 297.5,170.5C 295.784,170.371 294.117,170.038 292.5,169.5C 292.167,168.833 291.833,168.167 291.5,167.5 Z" /></g>
<g><path style="opacity:0.043" fill="#8a929d" d="M 110.5,156.5 C 111.5,156.5 112.5,156.5 113.5,156.5C 112.36,157.801 111.027,158.968 109.5,160C 88.4784,169.512 67.4784,179.012 46.5,188.5C 46.8333,187.833 47.1667,187.167 47.5,186.5C 54.511,183.661 61.1776,180.328 67.5,176.5C 68.391,175.89 69.391,175.557 70.5,175.5C 72.8185,175.008 74.8185,174.008 76.5,172.5C 81.6894,170.403 86.6894,168.07 91.5,165.5C 94.2406,165.293 96.5739,164.293 98.5,162.5C 101.697,161.548 104.697,160.215 107.5,158.5C 108.29,157.599 109.29,156.932 110.5,156.5 Z" /></g>
<g><path style="opacity:1" fill="#3573b1" d="M 46.5,167.5 C 44.5182,170.137 41.8515,171.47 38.5,171.5C 40.6123,169.229 43.279,167.896 46.5,167.5 Z" /></g>
<g><path style="opacity:0.38" fill="#8698ad" d="M 297.5,170.5 C 301.137,171.263 304.47,172.597 307.5,174.5C 303.703,174.128 300.37,172.794 297.5,170.5 Z" /></g>
<g><path style="opacity:1" fill="#1a6db9" d="M 58.5,162.5 C 55.4382,164.623 53.9382,167.623 54,171.5C 53.221,170.272 52.221,169.272 51,168.5C 47.3663,170.139 44.033,172.139 41,174.5C 39.9505,173.483 38.7839,173.316 37.5,174C 36.3595,174.741 36.3595,175.575 37.5,176.5C 37.1667,177.5 36.5,178.167 35.5,178.5C 30.0506,177.719 24.7173,178.385 19.5,180.5C 19.5,180.167 19.5,179.833 19.5,179.5C 25.7137,176.56 32.0471,173.893 38.5,171.5C 41.8515,171.47 44.5182,170.137 46.5,167.5C 50.2662,165.284 54.2662,163.617 58.5,162.5 Z" /></g>
<g><path style="opacity:0.157" fill="#8d97a3" d="M 176.5,162.5 C 176.833,162.5 177.167,162.5 177.5,162.5C 177.067,165.195 175.734,167.362 173.5,169C 165.355,173.573 157.022,177.907 148.5,182C 149.571,182.852 150.571,183.685 151.5,184.5C 147.065,185.078 145.732,183.411 147.5,179.5C 148.833,178.833 150.167,178.167 151.5,177.5C 155.151,176.341 158.485,174.674 161.5,172.5C 166.165,171.172 170.165,168.839 173.5,165.5C 174.728,164.694 175.728,163.694 176.5,162.5 Z" /></g>
<g><path style="opacity:0.941" fill="#4c77a8" d="M 76.5,172.5 C 74.8185,174.008 72.8185,175.008 70.5,175.5C 71.911,173.461 73.911,172.461 76.5,172.5 Z" /></g>
<g><path style="opacity:1" fill="#3b70ab" d="M 161.5,172.5 C 158.485,174.674 155.151,176.341 151.5,177.5C 154.168,174.709 157.502,173.042 161.5,172.5 Z" /></g>
<g><path style="opacity:1" fill="#336eae" d="M 292.5,169.5 C 294.117,170.038 295.784,170.371 297.5,170.5C 300.37,172.794 303.703,174.128 307.5,174.5C 307.5,175.167 307.5,175.833 307.5,176.5C 303.62,175.029 299.62,173.862 295.5,173C 294.29,171.961 293.29,170.794 292.5,169.5 Z" /></g>
<g><path style="opacity:0.62" fill="#8ea2b9" d="M 130.5,170.5 C 129.167,172.5 127.5,174.167 125.5,175.5C 126.167,172.833 127.833,171.167 130.5,170.5 Z" /></g>
<g><path style="opacity:1" fill="#356fad" d="M 259.5,173.5 C 264.233,174.694 268.899,176.194 273.5,178C 275.063,178.759 276.063,179.926 276.5,181.5C 270.584,179.203 264.918,176.537 259.5,173.5 Z" /></g>
<g><path style="opacity:0.608" fill="#748ca6" d="M 307.5,174.5 C 310.744,175.463 313.744,176.796 316.5,178.5C 313.461,177.99 310.461,177.323 307.5,176.5C 307.5,175.833 307.5,175.167 307.5,174.5 Z" /></g>
<g><path style="opacity:0.988" fill="#3172b3" d="M 307.5,176.5 C 310.461,177.323 313.461,177.99 316.5,178.5C 316.833,179.167 317.167,179.833 317.5,180.5C 313.57,180.365 310.236,179.032 307.5,176.5 Z" /></g>
<g><path style="opacity:0.369" fill="#8798a8" d="M 316.5,178.5 C 319.732,178.772 321.732,180.438 322.5,183.5C 321.833,183.167 321.167,182.833 320.5,182.5C 320.167,181.5 319.5,180.833 318.5,180.5C 318.167,180.5 317.833,180.5 317.5,180.5C 317.167,179.833 316.833,179.167 316.5,178.5 Z" /></g>
<g><path style="opacity:0.714" fill="#728eaf" d="M 125.5,175.5 C 125.251,178.002 124.917,180.502 124.5,183C 124.482,185.442 125.149,187.608 126.5,189.5C 125.833,189.167 125.167,188.833 124.5,188.5C 123.839,186.866 123.506,185.033 123.5,183C 123.3,180.134 123.967,177.634 125.5,175.5 Z" /></g>
<g><path style="opacity:0.525" fill="#a3b1c0" d="M 18.5,178.5 C 18.5,178.833 18.5,179.167 18.5,179.5C 16.8333,180.5 15.5,181.833 14.5,183.5C 14.1667,183.5 13.8333,183.5 13.5,183.5C 14.1667,180.833 15.8333,179.167 18.5,178.5 Z" /></g>
<g><path style="opacity:0.98" fill="#4474a8" d="M 18.5,179.5 C 18.8333,179.5 19.1667,179.5 19.5,179.5C 19.5,179.833 19.5,180.167 19.5,180.5C 17.8333,181.833 16.1667,183.167 14.5,184.5C 14.5,184.167 14.5,183.833 14.5,183.5C 15.5,181.833 16.8333,180.5 18.5,179.5 Z" /></g>
<g><path style="opacity:1" fill="#3a72af" d="M 277.5,181.5 C 281.836,181.837 285.503,183.504 288.5,186.5C 284.407,185.618 280.74,183.951 277.5,181.5 Z" /></g>
<g><path style="opacity:1" fill="#3770ae" d="M 147.5,179.5 C 145.732,183.411 147.065,185.078 151.5,184.5C 153.167,185.833 154.833,187.167 156.5,188.5C 152.759,186.933 148.926,185.599 145,184.5C 143.923,181.738 144.756,180.072 147.5,179.5 Z" /></g>
<g><path style="opacity:0.573" fill="#6f859f" d="M 13.5,183.5 C 13.8333,183.5 14.1667,183.5 14.5,183.5C 14.5,183.833 14.5,184.167 14.5,184.5C 14.5,184.833 14.5,185.167 14.5,185.5C 13.5206,188.625 13.1872,191.958 13.5,195.5C 13.1667,195.5 12.8333,195.5 12.5,195.5C 12.2367,191.4 12.5701,187.4 13.5,183.5 Z" /></g>
<g><path style="opacity:1" fill="#3774b5" d="M 67.5,176.5 C 61.1776,180.328 54.511,183.661 47.5,186.5C 43.9259,187.034 42.5926,188.867 43.5,192C 51.127,195.175 58.7937,198.008 66.5,200.5C 66.8333,201.167 67.1667,201.833 67.5,202.5C 58.5778,199.304 49.5778,196.304 40.5,193.5C 39.8224,189.727 41.1558,186.894 44.5,185C 47.8448,183.994 50.8448,182.494 53.5,180.5C 58.347,179.62 63.0137,178.286 67.5,176.5 Z" /></g>
<g><path style="opacity:0.561" fill="#8a9db2" d="M 47.5,186.5 C 47.1667,187.167 46.8333,187.833 46.5,188.5C 46.0825,189.222 45.4158,189.722 44.5,190C 52.0459,193.275 59.3792,196.775 66.5,200.5C 58.7937,198.008 51.127,195.175 43.5,192C 42.5926,188.867 43.9259,187.034 47.5,186.5 Z" /></g>
<g><path style="opacity:1" fill="#3b73ae" d="M 292.5,189.5 C 294.048,189.821 294.715,190.821 294.5,192.5C 288.443,195.41 282.109,197.743 275.5,199.5C 275.833,198.833 276.167,198.167 276.5,197.5C 282.192,196.486 287.192,194.152 291.5,190.5C 292.167,190.5 292.5,190.167 292.5,189.5 Z" /></g>
<g><path style="opacity:0.722" fill="#8394a7" d="M 151.5,184.5 C 160.568,186.953 169.068,190.62 177,195.5C 180.167,208.333 175.333,213.167 162.5,210C 151.167,204.667 139.833,199.333 128.5,194C 126.536,192.549 125.203,190.716 124.5,188.5C 125.167,188.833 125.833,189.167 126.5,189.5C 133.329,194.751 140.995,198.751 149.5,201.5C 152.34,203.915 155.673,205.248 159.5,205.5C 164.009,209.855 169.009,210.522 174.5,207.5C 175.117,207.389 175.617,207.056 176,206.5C 176.805,203.304 176.638,200.304 175.5,197.5C 175.167,196.5 174.5,195.833 173.5,195.5C 170.087,192.688 166.087,191.021 161.5,190.5C 160.22,189.069 158.553,188.402 156.5,188.5C 154.833,187.167 153.167,185.833 151.5,184.5 Z" /></g>
<g><path style="opacity:1" fill="#3774b2" d="M 161.5,190.5 C 166.087,191.021 170.087,192.688 173.5,195.5C 168.979,194.901 164.979,193.235 161.5,190.5 Z" /></g>
<g><path style="opacity:0.42" fill="#8b9db1" d="M 291.5,190.5 C 287.192,194.152 282.192,196.486 276.5,197.5C 281.167,194.603 286.167,192.27 291.5,190.5 Z" /></g>
<g><path style="opacity:0.867" fill="#467db3" d="M 175.5,197.5 C 176.638,200.304 176.805,203.304 176,206.5C 175.617,207.056 175.117,207.389 174.5,207.5C 175.324,204.236 175.658,200.902 175.5,197.5 Z" /></g>
<g><path style="opacity:1" fill="#3772b1" d="M 149.5,201.5 C 153.327,201.752 156.66,203.085 159.5,205.5C 155.673,205.248 152.34,203.915 149.5,201.5 Z" /></g>
<g><path style="opacity:0.133" fill="#7d90a6" d="M 66.5,200.5 C 75.1594,203.602 83.4928,207.268 91.5,211.5C 87.1667,210.167 82.8333,208.833 78.5,207.5C 75.0748,205.435 71.4081,203.769 67.5,202.5C 67.1667,201.833 66.8333,201.167 66.5,200.5 Z" /></g>
<g><path style="opacity:0.38" fill="#7089a6" d="M 276.5,197.5 C 276.167,198.167 275.833,198.833 275.5,199.5C 273.632,200.263 271.965,201.263 270.5,202.5C 269.127,202.343 267.793,202.51 266.5,203C 264.382,204.082 262.382,205.249 260.5,206.5C 259.167,206.833 257.833,207.167 256.5,207.5C 256.5,207.167 256.5,206.833 256.5,206.5C 262.96,203.121 269.626,200.121 276.5,197.5 Z" /></g>
<g><path style="opacity:1" fill="#2b6daf" d="M 270.5,202.5 C 267.66,204.915 264.327,206.248 260.5,206.5C 262.382,205.249 264.382,204.082 266.5,203C 267.793,202.51 269.127,202.343 270.5,202.5 Z" /></g>
<g><path style="opacity:0.373" fill="#8594a6" d="M 30.5,206.5 C 35.5939,207.88 40.5939,209.547 45.5,211.5C 48.9789,213.403 52.6456,215.07 56.5,216.5C 56.8333,216.5 57.1667,216.5 57.5,216.5C 64.5893,219.976 71.5893,223.642 78.5,227.5C 62.9465,220.89 47.2799,214.557 31.5,208.5C 31.1667,208.5 30.8333,208.5 30.5,208.5C 30.5,207.833 30.5,207.167 30.5,206.5 Z" /></g>
<g><path style="opacity:1" fill="#3572b3" d="M 78.5,207.5 C 82.8333,208.833 87.1667,210.167 91.5,211.5C 96.2762,214.883 101.61,217.216 107.5,218.5C 108.694,219.272 109.694,220.272 110.5,221.5C 107.729,221.579 105.063,221.079 102.5,220C 98.3299,217.845 94.3299,215.511 90.5,213C 87.5285,212.206 84.5285,211.539 81.5,211C 80.635,209.641 79.635,208.474 78.5,207.5 Z" /></g>
<g><path style="opacity:1" fill="#3d73ad" d="M 45.5,211.5 C 48.6473,211.737 51.6473,212.57 54.5,214C 55.756,214.417 56.4226,215.25 56.5,216.5C 52.6456,215.07 48.9789,213.403 45.5,211.5 Z" /></g>
<g><path style="opacity:1" fill="#3271b0" d="M 260.5,206.5 C 256.49,209.843 251.824,211.843 246.5,212.5C 249.759,210.847 253.093,209.181 256.5,207.5C 257.833,207.167 259.167,206.833 260.5,206.5 Z" /></g>
<g><path style="opacity:1" fill="#3070b2" d="M 299.5,207.5 C 294.197,210.388 288.53,212.721 282.5,214.5C 287.256,210.298 292.923,207.965 299.5,207.5 Z" /></g>
<g><path style="opacity:0.475" fill="#98a1ad" d="M 304.5,208.5 C 305.499,251.33 305.832,294.33 305.5,337.5C 305.5,339.167 305.5,340.833 305.5,342.5C 304.29,342.932 303.29,343.599 302.5,344.5C 301.833,344.5 301.167,344.5 300.5,344.5C 301.458,343.038 302.624,341.705 304,340.5C 304.5,296.501 304.667,252.501 304.5,208.5 Z" /></g>
<g><path style="opacity:0.322" fill="#8294aa" d="M 91.5,211.5 C 97.2296,213.071 102.563,215.404 107.5,218.5C 101.61,217.216 96.2762,214.883 91.5,211.5 Z" /></g>
<g><path style="opacity:1" fill="#317cc2" d="M 306.5,207.5 C 307.222,207.918 307.722,208.584 308,209.5C 308.667,252.167 308.667,294.833 308,337.5C 307.626,339.491 306.793,341.158 305.5,342.5C 305.5,340.833 305.5,339.167 305.5,337.5C 306.499,294.337 306.832,251.003 306.5,207.5 Z" /></g>
<g><path style="opacity:1" fill="#3d74af" d="M 246.5,212.5 C 241.708,215.892 236.374,218.225 230.5,219.5C 235.296,216.106 240.629,213.772 246.5,212.5 Z" /></g>
<g><path style="opacity:1" fill="#366fab" d="M 280.5,215.5 C 277.249,217.957 273.582,219.624 269.5,220.5C 272.751,218.043 276.418,216.376 280.5,215.5 Z" /></g>
<g><path style="opacity:1" fill="#3f72ab" d="M 57.5,216.5 C 58.8734,216.343 60.2068,216.51 61.5,217C 68.6477,220.424 75.6477,223.924 82.5,227.5C 81.1667,227.5 79.8333,227.5 78.5,227.5C 71.5893,223.642 64.5893,219.976 57.5,216.5 Z" /></g>
<g><path style="opacity:0.882" fill="#3772ad" d="M 320.5,182.5 C 321.167,182.833 321.833,183.167 322.5,183.5C 322.667,239.834 322.5,296.168 322,352.5C 321.617,353.056 321.117,353.389 320.5,353.5C 320.5,352.833 320.5,352.167 320.5,351.5C 321.827,295.294 321.827,238.961 320.5,182.5 Z" /></g>
<g><path style="opacity:1" fill="#3f76b1" d="M 230.5,219.5 C 228.326,221.081 225.993,222.581 223.5,224C 222.207,224.49 220.873,224.657 219.5,224.5C 222.632,221.89 226.299,220.223 230.5,219.5 Z" /></g>
<g><path style="opacity:0.675" fill="#8393a5" d="M 78.5,227.5 C 79.8333,227.5 81.1667,227.5 82.5,227.5C 84.6351,229.071 86.9684,230.404 89.5,231.5C 90.1667,232.167 90.8333,232.833 91.5,233.5C 86.749,232.29 82.4156,230.29 78.5,227.5 Z" /></g>
<g><path style="opacity:1" fill="#296fb6" d="M 117.5,224.5 C 119.564,224.687 121.564,225.187 123.5,226C 125.84,227.641 128.173,229.141 130.5,230.5C 128.473,230.662 126.473,230.495 124.5,230C 122.295,228.573 120.128,228.073 118,228.5C 117.51,227.207 117.343,225.873 117.5,224.5 Z" /></g>
<g><path style="opacity:1" fill="#487ab2" d="M 219.5,224.5 C 216.808,227.181 213.475,228.514 209.5,228.5C 212.54,226.654 215.873,225.321 219.5,224.5 Z" /></g>
<g><path style="opacity:0.882" fill="#507bab" d="M 209.5,228.5 C 207.967,230.245 205.967,231.245 203.5,231.5C 205.033,229.755 207.033,228.755 209.5,228.5 Z" /></g>
<g><path style="opacity:0.929" fill="#547dad" d="M 89.5,231.5 C 92.491,231.166 94.8243,232.166 96.5,234.5C 94.8828,233.962 93.2161,233.629 91.5,233.5C 90.8333,232.833 90.1667,232.167 89.5,231.5 Z" /></g>
<g><path style="opacity:0.235" fill="#8c949f" d="M 91.5,233.5 C 93.2161,233.629 94.8828,233.962 96.5,234.5C 97.1667,235.167 97.8333,235.833 98.5,236.5C 95.7594,236.293 93.4261,235.293 91.5,233.5 Z" /></g>
<g><path style="opacity:1" fill="#3a71ad" d="M 203.5,231.5 C 199.175,235.161 194.175,237.494 188.5,238.5C 193.07,235.384 198.07,233.05 203.5,231.5 Z" /></g>
<g><path style="opacity:1" fill="#316fb1" d="M 269.5,220.5 C 263.029,223.628 256.363,226.461 249.5,229C 241.11,233.526 232.777,238.026 224.5,242.5C 221.779,242.963 219.112,243.629 216.5,244.5C 219.855,241.35 223.855,239.183 228.5,238C 230.167,237 231.5,235.667 232.5,234C 237.901,233.372 242.734,231.538 247,228.5C 254.34,225.261 261.84,222.595 269.5,220.5 Z" /></g>
<g><path style="opacity:0.341" fill="#8193a8" d="M 299.5,207.5 C 300.167,207.5 300.833,207.5 301.5,207.5C 302.791,207.263 303.791,207.596 304.5,208.5C 277.588,219.249 250.921,230.582 224.5,242.5C 232.777,238.026 241.11,233.526 249.5,229C 256.363,226.461 263.029,223.628 269.5,220.5C 273.582,219.624 277.249,217.957 280.5,215.5C 281.167,215.167 281.833,214.833 282.5,214.5C 288.53,212.721 294.197,210.388 299.5,207.5 Z" /></g>
<g><path style="opacity:0.941" fill="#4d79ab" d="M 96.5,234.5 C 98.8984,234.259 100.898,234.926 102.5,236.5C 101.167,236.5 99.8333,236.5 98.5,236.5C 97.8333,235.833 97.1667,235.167 96.5,234.5 Z" /></g>
<g><path style="opacity:0.184" fill="#8492a3" d="M 256.5,206.5 C 256.5,206.833 256.5,207.167 256.5,207.5C 253.093,209.181 249.759,210.847 246.5,212.5C 240.629,213.772 235.296,216.106 230.5,219.5C 226.299,220.223 222.632,221.89 219.5,224.5C 215.873,225.321 212.54,226.654 209.5,228.5C 207.033,228.755 205.033,229.755 203.5,231.5C 198.07,233.05 193.07,235.384 188.5,238.5C 184.203,239.655 180.203,241.321 176.5,243.5C 173.023,245.258 169.357,245.758 165.5,245C 161.056,242.352 156.389,240.185 151.5,238.5C 144.766,235.069 137.766,232.403 130.5,230.5C 128.173,229.141 125.84,227.641 123.5,226C 121.564,225.187 119.564,224.687 117.5,224.5C 115.574,222.707 113.241,221.707 110.5,221.5C 109.694,220.272 108.694,219.272 107.5,218.5C 128.324,226.573 148.991,235.239 169.5,244.5C 198.159,231.058 227.159,218.391 256.5,206.5 Z" /></g>
<g><path style="opacity:1" fill="#1b70bb" d="M 318.5,180.5 C 319.5,180.833 320.167,181.5 320.5,182.5C 321.827,238.961 321.827,295.294 320.5,351.5C 320.667,297.166 320.5,242.832 320,188.5C 319.605,185.793 319.105,183.127 318.5,180.5 Z" /></g>
<g><path style="opacity:0.38" fill="#667d93" d="M 322.5,183.5 C 323.665,240.332 323.832,297.332 323,354.5C 322.292,355.381 321.458,356.047 320.5,356.5C 320.167,356.5 319.833,356.5 319.5,356.5C 319.5,356.167 319.5,355.833 319.5,355.5C 319.833,354.833 320.167,354.167 320.5,353.5C 321.117,353.389 321.617,353.056 322,352.5C 322.5,296.168 322.667,239.834 322.5,183.5 Z" /></g>
<g><path style="opacity:1" fill="#3671ae" d="M 111.5,240.5 C 115.533,241.025 119.2,242.358 122.5,244.5C 118.467,243.975 114.8,242.642 111.5,240.5 Z" /></g>
<g><path style="opacity:0.941" fill="#216ab0" d="M 14.5,185.5 C 14.3333,239.834 14.5,294.168 15,348.5C 15.2117,350.78 16.0451,352.78 17.5,354.5C 19.9617,355.794 22.2951,357.294 24.5,359C 27.5921,358.893 29.9255,360.059 31.5,362.5C 29.1175,360.954 26.4509,360.287 23.5,360.5C 21.9096,358.766 19.9096,357.6 17.5,357C 15.8588,355.871 14.8588,354.371 14.5,352.5C 13.5132,300.196 13.1798,247.863 13.5,195.5C 13.1872,191.958 13.5206,188.625 14.5,185.5 Z" /></g>
<g><path style="opacity:1" fill="#3672b2" d="M 151.5,238.5 C 156.389,240.185 161.056,242.352 165.5,245C 169.357,245.758 173.023,245.258 176.5,243.5C 176.5,244.5 176.5,245.5 176.5,246.5C 173.201,247.376 169.868,247.543 166.5,247C 161.357,244.247 156.357,241.414 151.5,238.5 Z" /></g>
<g><path style="opacity:0.647" fill="#7d92ac" d="M 98.5,236.5 C 99.8333,236.5 101.167,236.5 102.5,236.5C 105.388,237.98 108.388,239.313 111.5,240.5C 114.8,242.642 118.467,243.975 122.5,244.5C 123.058,245.79 124.058,246.623 125.5,247C 128.202,247.84 130.868,248.673 133.5,249.5C 138.381,252.676 143.715,255.009 149.5,256.5C 149.973,257.906 150.973,258.573 152.5,258.5C 154.076,259.143 155.41,260.143 156.5,261.5C 137.079,253.145 117.745,244.812 98.5,236.5 Z" /></g>
<g><path style="opacity:1" fill="#296db4" d="M 133.5,249.5 C 139.76,250.043 145.093,252.377 149.5,256.5C 143.715,255.009 138.381,252.676 133.5,249.5 Z" /></g>
<g><path style="opacity:0.153" fill="#788ea8" d="M 224.5,242.5 C 212.138,248.678 199.472,254.344 186.5,259.5C 186.833,258.833 187.167,258.167 187.5,257.5C 197.086,252.871 206.753,248.538 216.5,244.5C 219.112,243.629 221.779,242.963 224.5,242.5 Z" /></g>
<g><path style="opacity:0.804" fill="#4d78a7" d="M 187.5,257.5 C 187.167,258.167 186.833,258.833 186.5,259.5C 185.5,259.5 184.5,259.5 183.5,259.5C 184.514,258.326 185.847,257.66 187.5,257.5 Z" /></g>
<g><path style="opacity:0.153" fill="#8996a4" d="M 183.5,259.5 C 184.5,259.5 185.5,259.5 186.5,259.5C 185.486,260.674 184.153,261.34 182.5,261.5C 182.833,260.833 183.167,260.167 183.5,259.5 Z" /></g>
<g><path style="opacity:0.333" fill="#718092" d="M 179.5,261.5 C 180.5,261.5 181.5,261.5 182.5,261.5C 181.878,262.627 181.045,263.627 180,264.5C 179.5,308.499 179.333,352.499 179.5,396.5C 180.209,397.404 181.209,397.737 182.5,397.5C 181.167,398.833 179.833,398.833 178.5,397.5C 178.172,352.095 178.505,306.761 179.5,261.5 Z" /></g>
<g><path style="opacity:1" fill="#2b67a8" d="M 179.5,261.5 C 178.505,306.761 178.172,352.095 178.5,397.5C 177.883,397.389 177.383,397.056 177,396.5C 176.5,351.501 176.333,306.501 176.5,261.5C 177.5,261.5 178.5,261.5 179.5,261.5 Z" /></g>
<g><path style="opacity:1" fill="#2067ac" d="M 45.5,211.5 C 40.5939,209.547 35.5939,207.88 30.5,206.5C 29.8333,248.167 29.1667,289.833 28.5,331.5C 28.3333,289.499 28.5,247.499 29,205.5C 30.7261,204.424 32.5594,204.257 34.5,205C 38.5095,206.711 42.1762,208.878 45.5,211.5 Z" /></g>
<g><path style="opacity:0.573" fill="#46688e" d="M 12.5,195.5 C 12.8333,195.5 13.1667,195.5 13.5,195.5C 13.1798,247.863 13.5132,300.196 14.5,352.5C 13.8333,352.167 13.1667,351.833 12.5,351.5C 12.5,299.5 12.5,247.5 12.5,195.5 Z" /></g>
<g><path style="opacity:0.91" fill="#7ea6cc" d="M 301.5,207.5 C 303.05,206.28 304.716,206.28 306.5,207.5C 306.832,251.003 306.499,294.337 305.5,337.5C 305.832,294.33 305.499,251.33 304.5,208.5C 303.791,207.596 302.791,207.263 301.5,207.5 Z" /></g>
<g><path style="opacity:0.925" fill="#447ab2" d="M 152.5,258.5 C 154.927,258.523 157.26,259.023 159.5,260C 160.823,260.816 161.489,261.983 161.5,263.5C 161.832,308.67 161.499,353.67 160.5,398.5C 160.667,353.499 160.5,308.499 160,263.5C 159.184,262.177 158.017,261.511 156.5,261.5C 155.41,260.143 154.076,259.143 152.5,258.5 Z" /></g>
<g><path style="opacity:1" fill="#3f74ad" d="M 30.5,206.5 C 30.5,207.167 30.5,207.833 30.5,208.5C 30.3333,253.168 30.5,297.835 31,342.5C 44.0717,349.244 57.5717,354.911 71.5,359.5C 72.0577,360.79 73.0577,361.623 74.5,362C 78.6132,364.053 82.9465,365.553 87.5,366.5C 87.8333,367.167 88.1667,367.833 88.5,368.5C 68.9877,361.102 49.6544,353.102 30.5,344.5C 28.6407,340.443 27.974,336.109 28.5,331.5C 29.1667,289.833 29.8333,248.167 30.5,206.5 Z" /></g>
<g><path style="opacity:0.792" fill="#6b86a4" d="M 300.5,344.5 C 301.167,344.5 301.833,344.5 302.5,344.5C 296.29,347.123 290.29,350.123 284.5,353.5C 283.833,353.5 283.167,353.5 282.5,353.5C 282.833,352.833 283.167,352.167 283.5,351.5C 289.059,348.887 294.725,346.553 300.5,344.5 Z" /></g>
<g><path style="opacity:0.086" fill="#798a9d" d="M 30.5,208.5 C 30.8333,208.5 31.1667,208.5 31.5,208.5C 31.3333,252.501 31.5,296.501 32,340.5C 45.002,347.325 58.1686,353.659 71.5,359.5C 57.5717,354.911 44.0717,349.244 31,342.5C 30.5,297.835 30.3333,253.168 30.5,208.5 Z" /></g>
<g><path style="opacity:0.408" fill="#8999aa" d="M 12.5,351.5 C 13.1667,351.833 13.8333,352.167 14.5,352.5C 14.8588,354.371 15.8588,355.871 17.5,357C 19.9096,357.6 21.9096,358.766 23.5,360.5C 17.6688,359.991 14.0022,356.991 12.5,351.5 Z" /></g>
<g><path style="opacity:0.302" fill="#8494a5" d="M 283.5,351.5 C 283.167,352.167 282.833,352.833 282.5,353.5C 277.823,355.174 273.156,356.84 268.5,358.5C 273.167,355.603 278.167,353.27 283.5,351.5 Z" /></g>
<g><path style="opacity:0.988" fill="#3a74af" d="M 282.5,353.5 C 283.167,353.5 283.833,353.5 284.5,353.5C 284.53,354.497 284.03,355.164 283,355.5C 276.829,357.613 270.662,359.613 264.5,361.5C 265.833,360.5 267.167,359.5 268.5,358.5C 273.156,356.84 277.823,355.174 282.5,353.5 Z" /></g>
<g><path style="opacity:1" fill="#3e70a6" d="M 31.5,362.5 C 34.491,362.166 36.8243,363.166 38.5,365.5C 35.8427,365.065 33.5093,364.065 31.5,362.5 Z" /></g>
<g><path style="opacity:0.282" fill="#8d9aab" d="M 71.5,359.5 C 77.3597,360.766 82.693,363.1 87.5,366.5C 82.9465,365.553 78.6132,364.053 74.5,362C 73.0577,361.623 72.0577,360.79 71.5,359.5 Z" /></g>
<g><path style="opacity:1" fill="#2f6fb1" d="M 319.5,355.5 C 319.5,355.833 319.5,356.167 319.5,356.5C 310.136,360.503 300.803,364.503 291.5,368.5C 292.453,366.39 294.119,365.223 296.5,365C 296.167,364.667 295.833,364.333 295.5,364C 303.413,360.981 311.413,358.148 319.5,355.5 Z" /></g>
<g><path style="opacity:0.435" fill="#7f8fa3" d="M 319.5,356.5 C 319.833,356.5 320.167,356.5 320.5,356.5C 319.657,358.173 318.324,359.34 316.5,360C 299.505,367.273 282.505,374.44 265.5,381.5C 265.833,380.833 266.167,380.167 266.5,379.5C 266.833,379.5 267.167,379.5 267.5,379.5C 275.358,376.07 283.024,372.403 290.5,368.5C 290.833,368.5 291.167,368.5 291.5,368.5C 300.803,364.503 310.136,360.503 319.5,356.5 Z" /></g>
<g><path style="opacity:1" fill="#316faf" d="M 264.5,361.5 C 262.236,363.314 259.903,365.147 257.5,367C 254.607,368.149 251.607,368.649 248.5,368.5C 253.5,365.673 258.834,363.339 264.5,361.5 Z" /></g>
<g><path style="opacity:1" fill="#2f6dad" d="M 46.5,368.5 C 47.8734,368.343 49.2068,368.51 50.5,369C 53.8651,370.344 56.8651,372.177 59.5,374.5C 54.7071,373.267 50.3737,371.267 46.5,368.5 Z" /></g>
<g><path style="opacity:0.525" fill="#73859d" d="M 156.5,261.5 C 158.017,261.511 159.184,262.177 160,263.5C 160.5,308.499 160.667,353.499 160.5,398.5C 158.545,399.93 156.879,399.597 155.5,397.5C 156.583,397.539 157.583,397.873 158.5,398.5C 159.298,398.043 159.631,397.376 159.5,396.5C 159.667,352.499 159.5,308.499 159,264.5C 157.955,263.627 157.122,262.627 156.5,261.5 Z" /></g>
<g><path style="opacity:0.929" fill="#306eae" d="M 290.5,368.5 C 283.024,372.403 275.358,376.07 267.5,379.5C 268.832,377.179 270.832,375.513 273.5,374.5C 279.031,372.037 284.697,370.037 290.5,368.5 Z" /></g>
<g><path style="opacity:0.753" fill="#7f92a8" d="M 23.5,360.5 C 26.4509,360.287 29.1175,360.954 31.5,362.5C 33.5093,364.065 35.8427,365.065 38.5,365.5C 41.0761,366.488 43.7428,367.488 46.5,368.5C 50.3737,371.267 54.7071,373.267 59.5,374.5C 63.5,376.833 67.5,379.167 71.5,381.5C 55.2083,375.017 39.2083,368.017 23.5,360.5 Z" /></g>
<g><path style="opacity:1" fill="#366ead" d="M 248.5,368.5 C 246.518,371.137 243.852,372.47 240.5,372.5C 242.612,370.229 245.279,368.896 248.5,368.5 Z" /></g>
<g><path style="opacity:1" fill="#306eb0" d="M 88.5,368.5 C 94.6719,370.993 100.672,373.66 106.5,376.5C 99.3805,375.933 93.3805,373.266 88.5,368.5 Z" /></g>
<g><path style="opacity:0.239" fill="#8190a4" d="M 87.5,366.5 C 100.16,371.83 112.827,377.163 125.5,382.5C 125.5,382.833 125.5,383.167 125.5,383.5C 122.833,382.833 120.167,382.167 117.5,381.5C 114.26,379.049 110.593,377.382 106.5,376.5C 100.672,373.66 94.6719,370.993 88.5,368.5C 88.1667,367.833 87.8333,367.167 87.5,366.5 Z" /></g>
<g><path style="opacity:1" fill="#2171bb" d="M 161.5,263.5 C 162.665,308.665 162.831,353.998 162,399.5C 157.663,401.308 154.163,400.308 151.5,396.5C 152.833,396.833 154.167,397.167 155.5,397.5C 156.879,399.597 158.545,399.93 160.5,398.5C 161.499,353.67 161.832,308.67 161.5,263.5 Z" /></g>
<g><path style="opacity:0.965" fill="#4474aa" d="M 59.5,374.5 C 64.4523,376.209 69.4523,378.042 74.5,380C 77.8651,381.344 80.8651,383.177 83.5,385.5C 81.8828,384.962 80.2161,384.629 78.5,384.5C 76.5739,382.707 74.2406,381.707 71.5,381.5C 67.5,379.167 63.5,376.833 59.5,374.5 Z" /></g>
<g><path style="opacity:0.298" fill="#8c98a8" d="M 71.5,381.5 C 74.2406,381.707 76.5739,382.707 78.5,384.5C 75.7594,384.293 73.4261,383.293 71.5,381.5 Z" /></g>
<g><path style="opacity:1" fill="#4274ac" d="M 266.5,379.5 C 266.167,380.167 265.833,380.833 265.5,381.5C 262.167,382.5 258.833,383.5 255.5,384.5C 258.332,381.245 261.999,379.578 266.5,379.5 Z" /></g>
<g><path style="opacity:1" fill="#3b71ac" d="M 228.5,377.5 C 221.386,381.559 214.052,385.392 206.5,389C 205.207,389.49 203.873,389.657 202.5,389.5C 210.631,384.557 219.297,380.557 228.5,377.5 Z" /></g>
<g><path style="opacity:0.298" fill="#8a98a9" d="M 78.5,384.5 C 80.2161,384.629 81.8828,384.962 83.5,385.5C 84.1667,386.167 84.8333,386.833 85.5,387.5C 82.7594,387.293 80.4261,386.293 78.5,384.5 Z" /></g>
<g><path style="opacity:0.953" fill="#4b7aad" d="M 83.5,385.5 C 86.491,385.166 88.8243,386.166 90.5,388.5C 88.8828,387.962 87.2161,387.629 85.5,387.5C 84.8333,386.833 84.1667,386.167 83.5,385.5 Z" /></g>
<g><path style="opacity:0.125" fill="#8c97a4" d="M 125.5,382.5 C 136.615,387.725 147.948,392.392 159.5,396.5C 159.631,397.376 159.298,398.043 158.5,398.5C 157.583,397.873 156.583,397.539 155.5,397.5C 154.167,397.167 152.833,396.833 151.5,396.5C 148.504,393.538 144.837,391.872 140.5,391.5C 135.627,388.564 130.627,385.897 125.5,383.5C 125.5,383.167 125.5,382.833 125.5,382.5 Z" /></g>
<g><path style="opacity:0.439" fill="#8ca0b4" d="M 265.5,381.5 C 258.241,385.626 250.575,388.959 242.5,391.5C 243.167,390.833 243.833,390.167 244.5,389.5C 248.294,388.018 251.961,386.351 255.5,384.5C 258.833,383.5 262.167,382.5 265.5,381.5 Z" /></g>
<g><path style="opacity:1" fill="#3772b1" d="M 255.5,384.5 C 251.961,386.351 248.294,388.018 244.5,389.5C 244.414,388.504 244.748,387.671 245.5,387C 248.824,386.057 252.157,385.224 255.5,384.5 Z" /></g>
<g><path style="opacity:0.145" fill="#85909f" d="M 268.5,358.5 C 267.167,359.5 265.833,360.5 264.5,361.5C 258.834,363.339 253.5,365.673 248.5,368.5C 245.279,368.896 242.612,370.229 240.5,372.5C 236.134,373.575 232.134,375.241 228.5,377.5C 219.297,380.557 210.631,384.557 202.5,389.5C 201.127,389.343 199.793,389.51 198.5,390C 194.159,392.319 189.825,394.485 185.5,396.5C 184.391,396.557 183.391,396.89 182.5,397.5C 181.209,397.737 180.209,397.404 179.5,396.5C 209.051,383.558 238.717,370.891 268.5,358.5 Z" /></g>
<g><path style="opacity:0.522" fill="#8495ab" d="M 85.5,387.5 C 87.2161,387.629 88.8828,387.962 90.5,388.5C 92.4214,389.363 94.4214,390.029 96.5,390.5C 99.9789,392.403 103.646,394.07 107.5,395.5C 109.964,396.567 112.297,397.9 114.5,399.5C 104.449,396.304 94.7822,392.304 85.5,387.5 Z" /></g>
<g><path style="opacity:0.886" fill="#3b6fa8" d="M 117.5,381.5 C 120.167,382.167 122.833,382.833 125.5,383.5C 130.627,385.897 135.627,388.564 140.5,391.5C 134.819,389.495 129.152,387.495 123.5,385.5C 121.435,384.143 119.435,382.81 117.5,381.5 Z" /></g>
<g><path style="opacity:1" fill="#2d6cad" d="M 96.5,390.5 C 98.1992,390.34 99.8659,390.506 101.5,391C 104.093,391.886 106.093,393.386 107.5,395.5C 103.646,394.07 99.9789,392.403 96.5,390.5 Z" /></g>
<g><path style="opacity:1" fill="#336fb1" d="M 244.5,389.5 C 243.833,390.167 243.167,390.833 242.5,391.5C 239.673,391.584 237.006,392.25 234.5,393.5C 234.804,392.85 235.137,392.183 235.5,391.5C 238.438,390.511 241.438,389.844 244.5,389.5 Z" /></g>
<g><path style="opacity:1" fill="#3a72ad" d="M 202.5,389.5 C 197.6,393.486 191.933,395.82 185.5,396.5C 189.825,394.485 194.159,392.319 198.5,390C 199.793,389.51 201.127,389.343 202.5,389.5 Z" /></g>
<g><path style="opacity:1" fill="#3c71ac" d="M 140.5,391.5 C 144.837,391.872 148.504,393.538 151.5,396.5C 150.127,396.657 148.793,396.49 147.5,396C 145.007,394.581 142.674,393.081 140.5,391.5 Z" /></g>
<g><path style="opacity:0.459" fill="#7990ab" d="M 242.5,391.5 C 238.414,393.87 234.081,395.87 229.5,397.5C 230.984,395.926 232.651,394.593 234.5,393.5C 237.006,392.25 239.673,391.584 242.5,391.5 Z" /></g>
<g><path style="opacity:0.953" fill="#3b71ac" d="M 234.5,393.5 C 232.651,394.593 230.984,395.926 229.5,397.5C 229.167,397.5 228.833,397.5 228.5,397.5C 225.911,397.461 223.911,398.461 222.5,400.5C 219.673,400.584 217.006,401.25 214.5,402.5C 218.963,400.438 223.296,397.938 227.5,395C 229.813,394.338 232.146,393.838 234.5,393.5 Z" /></g>
<g><path style="opacity:0.482" fill="#7a8faa" d="M 228.5,397.5 C 226.819,399.008 224.819,400.008 222.5,400.5C 223.911,398.461 225.911,397.461 228.5,397.5 Z" /></g>
<g><path style="opacity:0.929" fill="#748ead" d="M 114.5,399.5 C 125.342,403.249 136.008,407.582 146.5,412.5C 146.833,413.167 147.167,413.833 147.5,414.5C 136.044,410.268 125.044,405.268 114.5,399.5 Z" /></g>
<g><path style="opacity:0.463" fill="#7b90a9" d="M 222.5,400.5 C 219.686,402.07 216.686,403.403 213.5,404.5C 213.833,403.833 214.167,403.167 214.5,402.5C 217.006,401.25 219.673,400.584 222.5,400.5 Z" /></g>
<g><path style="opacity:1" fill="#3c70ac" d="M 214.5,402.5 C 214.167,403.167 213.833,403.833 213.5,404.5C 211.447,404.402 209.78,405.069 208.5,406.5C 206.847,406.66 205.514,407.326 204.5,408.5C 203.5,408.5 202.5,408.5 201.5,408.5C 204.907,404.631 209.241,402.631 214.5,402.5 Z" /></g>
<g><path style="opacity:0.486" fill="#8ea0b4" d="M 213.5,404.5 C 212.22,405.931 210.553,406.598 208.5,406.5C 209.78,405.069 211.447,404.402 213.5,404.5 Z" /></g>
<g><path style="opacity:0.451" fill="#99a7b8" d="M 208.5,406.5 C 207.713,408.104 206.38,408.771 204.5,408.5C 205.514,407.326 206.847,406.66 208.5,406.5 Z" /></g>
<g><path style="opacity:0.965" fill="#4576ac" d="M 201.5,408.5 C 198.862,409.815 196.528,411.482 194.5,413.5C 194.167,413.5 193.833,413.5 193.5,413.5C 192.833,413.5 192.167,413.5 191.5,413.5C 192.986,411.381 194.986,409.881 197.5,409C 198.793,408.51 200.127,408.343 201.5,408.5 Z" /></g>
<g><path style="opacity:0.176" fill="#99a8b8" d="M 201.5,408.5 C 202.5,408.5 203.5,408.5 204.5,408.5C 201.485,410.674 198.151,412.341 194.5,413.5C 196.528,411.482 198.862,409.815 201.5,408.5 Z" /></g>
<g><path style="opacity:1" fill="#3f73af" d="M 146.5,412.5 C 150.276,412.944 153.609,414.277 156.5,416.5C 155.167,416.5 153.833,416.5 152.5,416.5C 151.365,414.787 149.698,414.12 147.5,414.5C 147.167,413.833 146.833,413.167 146.5,412.5 Z" /></g>
<g><path style="opacity:0.988" fill="#5c7faa" d="M 191.5,413.5 C 192.167,413.5 192.833,413.5 193.5,413.5C 192.486,414.674 191.153,415.34 189.5,415.5C 187.435,415.517 185.435,415.85 183.5,416.5C 185.503,414.018 188.169,413.018 191.5,413.5 Z" /></g>
<g><path style="opacity:0.776" fill="#8396b0" d="M 147.5,414.5 C 149.698,414.12 151.365,414.787 152.5,416.5C 150.597,416.204 148.93,415.537 147.5,414.5 Z" /></g>
<g><path style="opacity:0.929" fill="#7891af" d="M 152.5,416.5 C 153.833,416.5 155.167,416.5 156.5,416.5C 158.853,418.343 161.52,419.677 164.5,420.5C 164.5,420.833 164.5,421.167 164.5,421.5C 159.982,420.903 155.982,419.236 152.5,416.5 Z" /></g>
<g><path style="opacity:0.878" fill="#778fad" d="M 189.5,415.5 C 185.739,417.538 181.739,419.204 177.5,420.5C 177.833,419.833 178.167,419.167 178.5,418.5C 180.05,417.559 181.716,416.893 183.5,416.5C 185.435,415.85 187.435,415.517 189.5,415.5 Z" /></g>
<g><path style="opacity:0.984" fill="#5279a9" d="M 178.5,418.5 C 178.167,419.167 177.833,419.833 177.5,420.5C 173.312,422.669 168.978,423.002 164.5,421.5C 164.5,421.167 164.5,420.833 164.5,420.5C 169.374,420.642 174.041,419.976 178.5,418.5 Z" /></g>
</svg>