<?xml version="1.0" encoding="utf-8"?><svg xmlns="http://www.w3.org/2000/svg" version="1.1" width="1266px" height="434px" style="shape-rendering:geometricPrecision; text-rendering:geometricPrecision; image-rendering:optimizeQuality; fill-rule:evenodd; clip-rule:evenodd">
<g><path style="opacity:0.776" fill="#93a0af" d="M 222.5,11.5 C 222.167,11.5 221.833,11.5 221.5,11.5C 220.833,10.1667 219.833,9.16667 218.5,8.5C 187.003,7.33597 155.336,7.16931 123.5,8C 122.667,8.83333 121.833,9.66667 121,10.5C 120.5,26.8299 120.333,43.1633 120.5,59.5C 119.725,63.1816 121.059,65.6816 124.5,67C 129.823,67.4994 135.156,67.666 140.5,67.5C 140.5,76.5 140.5,85.5 140.5,94.5C 139.671,86.3434 139.171,78.0101 139,69.5C 133.917,68.6929 128.75,68.1929 123.5,68C 121.714,67.2155 120.214,66.0488 119,64.5C 118.333,46.5 118.333,28.5 119,10.5C 120.5,9 122,7.5 123.5,6C 155.167,5.33333 186.833,5.33333 218.5,6C 220.464,7.45095 221.797,9.28428 222.5,11.5 Z" /></g>
<g><path style="opacity:1" fill="#5f99cf" d="M 218.5,8.5 C 187.165,8.33335 155.832,8.50002 124.5,9C 124,9.5 123.5,10 123,10.5C 122.831,27.0051 122.331,43.3385 121.5,59.5C 121.167,59.5 120.833,59.5 120.5,59.5C 120.333,43.1633 120.5,26.8299 121,10.5C 121.833,9.66667 122.667,8.83333 123.5,8C 155.336,7.16931 187.003,7.33597 218.5,8.5 Z" /></g>
<g><path style="opacity:1" fill="#1269b9" d="M 218.5,8.5 C 219.833,9.16667 220.833,10.1667 221.5,11.5C 221.2,16.0986 221.533,20.5986 222.5,25C 244.175,25.3177 265.842,25.8177 287.5,26.5C 287.833,26.5 288.167,26.5 288.5,26.5C 294.636,29.4468 300.136,33.4468 305,38.5C 308.665,44.4786 311.165,50.8119 312.5,57.5C 313.558,75.0803 306.225,87.4136 290.5,94.5C 272.596,96.5657 254.596,97.0657 236.5,96C 235.874,95.2496 235.374,94.4162 235,93.5C 234.501,89.8484 234.335,86.1817 234.5,82.5C 234.5,80.5 235.5,79.5 237.5,79.5C 251.171,79.6666 264.837,79.4999 278.5,79C 280.436,78.187 282.436,77.687 284.5,77.5C 285.038,74.0955 286.371,71.0955 288.5,68.5C 289.207,65.2139 289.54,61.8806 289.5,58.5C 289.66,56.8008 289.494,55.1341 289,53.5C 286.96,51.6298 285.127,49.6298 283.5,47.5C 283.426,45.5891 282.426,44.4224 280.5,44C 261.178,42.7717 241.845,42.4384 222.5,43C 222,43.5 221.5,44 221,44.5C 220.667,50.8333 220.333,57.1667 220,63.5C 219.5,64 219,64.5 218.5,65C 213.833,65.3333 209.167,65.6667 204.5,66C 204,66.5 203.5,67 203,67.5C 202.5,76.4938 202.334,85.4938 202.5,94.5C 201.657,96.1733 200.324,97.34 198.5,98C 193.177,98.4994 187.844,98.666 182.5,98.5C 182.968,120.566 182.468,142.566 181,164.5C 172.088,171.206 162.255,176.206 151.5,179.5C 151.297,181.39 151.963,182.89 153.5,184C 161.009,187.392 168.675,190.392 176.5,193C 183.649,197.522 184.315,202.855 178.5,209C 175.833,209.667 173.167,209.667 170.5,209C 157.738,203.202 145.238,197.035 133,190.5C 130.759,187.155 130.092,183.489 131,179.5C 133.487,176.858 135.321,173.858 136.5,170.5C 140.76,169.368 144.76,167.701 148.5,165.5C 154.463,163.674 160.463,161.841 166.5,160C 166.432,139.27 166.432,118.437 166.5,97.5C 159.2,96.7734 151.867,96.2734 144.5,96C 144,95.5 143.5,95 143,94.5C 142.947,85.0664 142.28,75.7331 141,66.5C 135.249,65.6896 129.416,65.1896 123.5,65C 121.845,63.5557 121.178,61.7224 121.5,59.5C 122.331,43.3385 122.831,27.0051 123,10.5C 123.5,10 124,9.5 124.5,9C 155.832,8.50002 187.165,8.33335 218.5,8.5 Z" /></g>
<g><path style="opacity:0.714" fill="#59799f" d="M 221.5,11.5 C 221.833,11.5 222.167,11.5 222.5,11.5C 222.335,15.1817 222.501,18.8484 223,22.5C 223.5,23 224,23.5 224.5,24C 244.167,24.3333 263.833,24.6667 283.5,25C 285.058,25.21 286.391,25.71 287.5,26.5C 265.842,25.8177 244.175,25.3177 222.5,25C 221.533,20.5986 221.2,16.0986 221.5,11.5 Z" /></g>
<g><path style="opacity:0.655" fill="#8c9bab" d="M 288.5,26.5 C 304.001,31.0033 312.001,41.3366 312.5,57.5C 311.165,50.8119 308.665,44.4786 305,38.5C 300.136,33.4468 294.636,29.4468 288.5,26.5 Z" /></g>
<g><path style="opacity:1" fill="#3f78b3" d="M 283.5,47.5 C 280.904,46.7347 278.237,46.4013 275.5,46.5C 258.69,44.77 241.69,44.27 224.5,45C 223.244,45.4169 222.577,46.2502 222.5,47.5C 222.5,52.8333 222.5,58.1667 222.5,63.5C 220.887,65.2696 218.887,66.4363 216.5,67C 212.247,67.1998 208.08,67.6998 204,68.5C 203.83,77.343 203.33,86.0097 202.5,94.5C 202.334,85.4938 202.5,76.4938 203,67.5C 203.5,67 204,66.5 204.5,66C 209.167,65.6667 213.833,65.3333 218.5,65C 219,64.5 219.5,64 220,63.5C 220.333,57.1667 220.667,50.8333 221,44.5C 221.5,44 222,43.5 222.5,43C 241.845,42.4384 261.178,42.7717 280.5,44C 282.426,44.4224 283.426,45.5891 283.5,47.5 Z" /></g>
<g><path style="opacity:0.141" fill="#858d99" d="M 275.5,46.5 C 257.757,46.181 240.09,46.5143 222.5,47.5C 222.577,46.2502 223.244,45.4169 224.5,45C 241.69,44.27 258.69,44.77 275.5,46.5 Z" /></g>
<g><path style="opacity:0.702" fill="#909dab" d="M 275.5,46.5 C 278.237,46.4013 280.904,46.7347 283.5,47.5C 285.127,49.6298 286.96,51.6298 289,53.5C 289.494,55.1341 289.66,56.8008 289.5,58.5C 286.35,52.6797 281.683,48.6797 275.5,46.5 Z" /></g>
<g><path style="opacity:1" fill="#6283ab" d="M 288.5,68.5 C 286.371,71.0955 285.038,74.0955 284.5,77.5C 282.436,77.687 280.436,78.187 278.5,79C 264.837,79.4999 251.171,79.6666 237.5,79.5C 250.167,78.8333 262.833,78.1667 275.5,77.5C 277.389,76.678 279.389,75.8447 281.5,75C 283.703,72.6278 286.037,70.4611 288.5,68.5 Z" /></g>
<g><path style="opacity:0.475" fill="#8490a0" d="M 312.5,57.5 C 315.25,75.1659 308.583,87.9993 292.5,96C 288.58,97.3134 284.58,98.3134 280.5,99C 264.741,99.9683 249.074,99.6349 233.5,98C 230.671,93.5957 229.837,88.7624 231,83.5C 232.167,81 234,79.1667 236.5,78C 249.496,77.5001 262.496,77.3334 275.5,77.5C 262.833,78.1667 250.167,78.8333 237.5,79.5C 235.5,79.5 234.5,80.5 234.5,82.5C 233.883,82.6107 233.383,82.944 233,83.5C 232.333,87.1667 232.333,90.8333 233,94.5C 234.214,96.0488 235.714,97.2155 237.5,98C 251.167,98.6667 264.833,98.6667 278.5,98C 282.868,97.7067 286.868,96.54 290.5,94.5C 306.225,87.4136 313.558,75.0803 312.5,57.5 Z" /></g>
<g><path style="opacity:1" fill="#3970ab" d="M 234.5,82.5 C 234.335,86.1817 234.501,89.8484 235,93.5C 235.374,94.4162 235.874,95.2496 236.5,96C 254.596,97.0657 272.596,96.5657 290.5,94.5C 286.868,96.54 282.868,97.7067 278.5,98C 264.833,98.6667 251.167,98.6667 237.5,98C 235.714,97.2155 234.214,96.0488 233,94.5C 232.333,90.8333 232.333,87.1667 233,83.5C 233.383,82.944 233.883,82.6107 234.5,82.5 Z" /></g>
<g><path style="opacity:0.525" fill="#8496aa" d="M 140.5,94.5 C 142.01,95.8361 143.677,97.0027 145.5,98C 151.825,98.4995 158.158,98.6662 164.5,98.5C 164.667,117.503 164.5,136.503 164,155.5C 163.184,156.823 162.017,157.489 160.5,157.5C 161.122,156.373 161.955,155.373 163,154.5C 163.667,136.5 163.667,118.5 163,100.5C 156.915,99.6883 150.748,99.1883 144.5,99C 142.249,98.2525 140.916,96.7525 140.5,94.5 Z" /></g>
<g><path style="opacity:0.169" fill="#f4f4f4" d="M 379.5,119.5 C 381.628,118.371 383.961,118.204 386.5,119C 384.301,120.583 381.968,120.75 379.5,119.5 Z" /></g>
<g><path style="opacity:0.686" fill="#8995a5" d="M 133.5,150.5 C 137.041,147.691 141.041,145.524 145.5,144C 149.721,130.73 145.054,126.396 131.5,131C 116.898,137.801 102.231,144.301 87.5,150.5C 87.3691,149.624 87.7025,148.957 88.5,148.5C 94.6517,145.923 100.652,143.09 106.5,140C 116.871,134.978 127.537,130.811 138.5,127.5C 147.482,127.989 150.982,132.655 149,141.5C 144.883,146.147 139.717,149.147 133.5,150.5 Z" /></g>
<g><path style="opacity:1" fill="#176ab9" d="M 257.5,150.5 C 260.241,150.707 262.574,151.707 264.5,153.5C 264.47,154.497 264.97,155.164 266,155.5C 274.337,157.99 282.17,161.323 289.5,165.5C 291.688,168.409 294.688,169.909 298.5,170C 305.932,174.206 313.932,177.039 322.5,178.5C 323.315,179.837 324.482,180.837 326,181.5C 326.333,182.5 326.667,183.5 327,184.5C 327.5,240.166 327.667,295.832 327.5,351.5C 326.758,353.426 325.758,355.259 324.5,357C 298.628,367.777 273.294,379.277 248.5,391.5C 242.628,393.594 236.628,395.428 230.5,397C 224.368,400.129 218.034,402.796 211.5,405C 204.289,410.969 195.955,414.635 186.5,416C 182.046,418.589 177.379,419.922 172.5,420C 168.285,417.056 163.618,415.889 158.5,416.5C 157.426,415.115 156.093,413.949 154.5,413C 144.236,409.2 134.236,404.866 124.5,400C 123.207,399.51 121.873,399.343 120.5,399.5C 106.988,393.279 93.6551,386.779 80.5,380C 77.5755,379.012 74.5755,378.346 71.5,378C 57.8721,371.074 43.8721,365.241 29.5,360.5C 26.6731,358.595 23.8398,356.595 21,354.5C 20.6667,352.5 20.3333,350.5 20,348.5C 19.5,297.501 19.3333,246.501 19.5,195.5C 19.335,192.15 19.5017,188.817 20,185.5C 20.3459,183.152 21.5125,181.319 23.5,180C 42.4657,171.675 61.4657,163.341 80.5,155C 83.2387,153.974 85.572,152.474 87.5,150.5C 102.231,144.301 116.898,137.801 131.5,131C 145.054,126.396 149.721,130.73 145.5,144C 141.041,145.524 137.041,147.691 133.5,150.5C 129.832,151.556 126.165,152.722 122.5,154C 121.058,154.377 120.058,155.21 119.5,156.5C 95.9357,166.615 72.6024,177.281 49.5,188.5C 48.1667,189.5 48.1667,190.5 49.5,191.5C 54.5368,194.421 59.8702,196.421 65.5,197.5C 70.6132,200.559 75.9466,203.392 81.5,206C 91.9715,210.657 102.638,214.824 113.5,218.5C 120.972,222.609 128.639,226.443 136.5,230C 149.393,235.246 162.393,240.413 175.5,245.5C 209.549,230.145 243.883,215.312 278.5,201C 285.217,197.98 291.551,194.48 297.5,190.5C 298.167,190.5 298.5,190.167 298.5,189.5C 286.979,183.925 275.312,178.425 263.5,173C 257.638,170.325 251.638,168.158 245.5,166.5C 240.731,163.944 236.064,161.11 231.5,158C 227.562,156.526 223.562,155.359 219.5,154.5C 215.422,153.298 211.422,151.798 207.5,150C 204.761,148.974 202.428,147.474 200.5,145.5C 195.144,137.508 196.811,131.841 205.5,128.5C 222.98,135.268 240.313,142.601 257.5,150.5 Z M 84.5,227.5 C 87.6106,229.559 90.9439,231.392 94.5,233C 117.293,242.231 139.96,251.731 162.5,261.5C 163.122,262.627 163.955,263.627 165,264.5C 165.833,308.504 165.667,352.504 164.5,396.5C 135.393,384.355 106.393,372.022 77.5,359.5C 67.1358,354.322 56.4691,349.655 45.5,345.5C 42.9795,343.981 40.4795,342.314 38,340.5C 37.5,296.501 37.3333,252.501 37.5,208.5C 53.2799,214.557 68.9465,220.89 84.5,227.5 Z M 274.5,358.5 C 244.717,370.891 215.051,383.558 185.5,396.5C 185.333,352.499 185.5,308.499 186,264.5C 187.045,263.627 187.878,262.627 188.5,261.5C 199.688,256.736 210.688,251.736 221.5,246.5C 228.001,244.222 234.335,241.555 240.5,238.5C 263.599,227.913 286.933,217.913 310.5,208.5C 310.667,252.501 310.5,296.501 310,340.5C 308.833,341.667 307.667,342.833 306.5,344C 295.605,348.565 284.939,353.399 274.5,358.5 Z" /></g>
<g><path style="opacity:0.329" fill="#919ca9" d="M 257.5,150.5 C 240.313,142.601 222.98,135.268 205.5,128.5C 196.811,131.841 195.144,137.508 200.5,145.5C 198.224,145.244 197.057,143.91 197,141.5C 194.833,130.333 199.333,125.833 210.5,128C 225.982,134.576 241.315,141.409 256.5,148.5C 257.298,148.957 257.631,149.624 257.5,150.5 Z" /></g>
<g><path style="opacity:0.004" fill="#000000" d="M 435.5,142.5 C 435.897,141.475 436.563,141.308 437.5,142C 436.906,142.464 436.239,142.631 435.5,142.5 Z" /></g>
<g><path style="opacity:0.639" fill="#8ba3bf" d="M 133.5,150.5 C 129.156,153.065 124.49,155.065 119.5,156.5C 120.058,155.21 121.058,154.377 122.5,154C 126.165,152.722 129.832,151.556 133.5,150.5 Z" /></g>
<g><path style="opacity:0.373" fill="#899bb2" d="M 264.5,153.5 C 275.904,157.373 286.904,162.04 297.5,167.5C 294.833,166.833 292.167,166.167 289.5,165.5C 282.17,161.323 274.337,157.99 266,155.5C 264.97,155.164 264.47,154.497 264.5,153.5 Z" /></g>
<g><path style="opacity:1" fill="#326dae" d="M 120.5,59.5 C 120.833,59.5 121.167,59.5 121.5,59.5C 121.178,61.7224 121.845,63.5557 123.5,65C 129.416,65.1896 135.249,65.6896 141,66.5C 142.28,75.7331 142.947,85.0664 143,94.5C 143.5,95 144,95.5 144.5,96C 151.867,96.2734 159.2,96.7734 166.5,97.5C 166.432,118.437 166.432,139.27 166.5,160C 160.463,161.841 154.463,163.674 148.5,165.5C 151.16,163.503 154.16,162.003 157.5,161C 159.063,160.241 160.063,159.074 160.5,157.5C 162.017,157.489 163.184,156.823 164,155.5C 164.5,136.503 164.667,117.503 164.5,98.5C 158.158,98.6662 151.825,98.4995 145.5,98C 143.677,97.0027 142.01,95.8361 140.5,94.5C 140.5,85.5 140.5,76.5 140.5,67.5C 135.156,67.666 129.823,67.4994 124.5,67C 121.059,65.6816 119.725,63.1816 120.5,59.5 Z" /></g>
<g><path style="opacity:0.02" fill="#8592a3" d="M 219.5,154.5 C 223.562,155.359 227.562,156.526 231.5,158C 236.064,161.11 240.731,163.944 245.5,166.5C 236.265,163.547 227.599,159.547 219.5,154.5 Z" /></g>
<g><path style="opacity:0.694" fill="#8390a1" d="M 245.5,166.5 C 251.638,168.158 257.638,170.325 263.5,173C 275.312,178.425 286.979,183.925 298.5,189.5C 280.356,182.791 262.689,175.124 245.5,166.5 Z" /></g>
<g><path style="opacity:0.999" fill="#0e68b8" d="M 859.5,251.5 C 859.167,251.5 858.833,251.5 858.5,251.5C 851.913,249.539 844.913,248.872 837.5,249.5C 837.5,240.833 837.5,232.167 837.5,223.5C 843.176,223.666 848.843,223.499 854.5,223C 856.058,222.79 857.391,222.29 858.5,221.5C 859.167,221.5 859.5,221.167 859.5,220.5C 857.26,202.966 862.594,188.132 875.5,176C 891.587,167.085 908.587,165.085 926.5,170C 927.761,178.457 927.761,186.957 926.5,195.5C 918.762,195.144 911.095,195.644 903.5,197C 899.725,198.442 896.892,200.942 895,204.5C 894.191,210.749 894.358,216.916 895.5,223C 905.161,223.5 914.828,223.666 924.5,223.5C 924.5,232.167 924.5,240.833 924.5,249.5C 914.584,249.181 904.75,249.514 895,250.5C 894.5,285.498 894.333,320.498 894.5,355.5C 883.167,355.5 871.833,355.5 860.5,355.5C 860.833,320.094 860.499,285.427 859.5,251.5 Z" /></g>
<g><path style="opacity:0.999" fill="#0f67b7" d="M 1063.5,191.5 C 1065.76,194.526 1067.43,197.86 1068.5,201.5C 1068.67,209.174 1068.5,216.841 1068,224.5C 1066.42,235.158 1061.59,243.991 1053.5,251C 1047.51,254.599 1041.51,258.099 1035.5,261.5C 1042.45,264.147 1049.12,267.647 1055.5,272C 1059.08,275.753 1062.75,279.253 1066.5,282.5C 1069.38,286.314 1071.21,290.647 1072,295.5C 1075.31,316.25 1069.14,333.417 1053.5,347C 1046.23,351.642 1038.56,355.142 1030.5,357.5C 1018.91,359.192 1007.24,359.858 995.5,359.5C 989.38,359.544 983.713,358.211 978.5,355.5C 967.224,351.074 957.391,344.408 949,335.5C 941.787,324.616 938.287,312.616 938.5,299.5C 950.167,299.5 961.833,299.5 973.5,299.5C 974.012,316.519 982.679,326.685 999.5,330C 1015.87,333.124 1028.03,327.624 1036,313.5C 1038.28,305.04 1037.94,296.706 1035,288.5C 1033.12,286.957 1031.62,285.124 1030.5,283C 1029.55,282.517 1028.55,282.351 1027.5,282.5C 1024.59,281.213 1021.59,280.213 1018.5,279.5C 1017.33,278.655 1016,277.989 1014.5,277.5C 1013.83,276.833 1013.17,276.167 1012.5,275.5C 1011.39,274.71 1010.06,274.21 1008.5,274C 1003.51,273.501 998.511,273.334 993.5,273.5C 994.371,265.2 994.705,256.867 994.5,248.5C 1009.06,251.365 1021.56,247.699 1032,237.5C 1040.59,224 1039.09,211.833 1027.5,201C 1012.75,192.659 998.921,193.826 986,204.5C 981.635,210.425 979.135,217.092 978.5,224.5C 967.167,224.5 955.833,224.5 944.5,224.5C 944.98,219.178 945.313,213.845 945.5,208.5C 946.545,202.409 948.712,196.742 952,191.5C 956.478,186.509 961.311,182.176 966.5,178.5C 989.042,166.398 1012.71,164.231 1037.5,172C 1041.5,174 1045.5,176 1049.5,178C 1054.74,182.08 1059.41,186.58 1063.5,191.5 Z" /></g>
<g><path style="opacity:0.925" fill="#728fb2" d="M 160.5,157.5 C 160.063,159.074 159.063,160.241 157.5,161C 154.16,162.003 151.16,163.503 148.5,165.5C 144.76,167.701 140.76,169.368 136.5,170.5C 143.885,165.139 151.885,160.806 160.5,157.5 Z" /></g>
<g><path style="opacity:0.365" fill="#bac1cb" d="M 423.5,168.5 C 436.837,168.333 450.171,168.5 463.5,169C 464.333,169.833 465.167,170.667 466,171.5C 467.173,175.531 468.34,179.531 469.5,183.5C 467.926,182.016 466.593,180.349 465.5,178.5C 465.377,175.626 464.377,173.126 462.5,171C 449.504,170.5 436.504,170.333 423.5,170.5C 423.5,169.833 423.5,169.167 423.5,168.5 Z" /></g>
<g><path style="opacity:0.345" fill="#c1cbd5" d="M 1243.5,211.5 C 1231.13,192.304 1213.8,179.971 1191.5,174.5C 1191.17,174.5 1190.83,174.5 1190.5,174.5C 1183.77,172.525 1176.77,171.358 1169.5,171C 1145.17,170.5 1120.84,170.333 1096.5,170.5C 1096.5,170.167 1096.5,169.833 1096.5,169.5C 1121,168.337 1145.66,168.17 1170.5,169C 1197.04,169.855 1219.2,180.021 1237,199.5C 1239.45,203.394 1241.61,207.394 1243.5,211.5 Z" /></g>
<g><path style="opacity:0.999" fill="#0e68b8" d="M 1190.5,174.5 C 1190.83,174.5 1191.17,174.5 1191.5,174.5C 1191.62,175.586 1192.29,176.253 1193.5,176.5C 1228.66,187.809 1248.49,211.809 1253,248.5C 1253.92,262.582 1253.25,276.582 1251,290.5C 1250.53,291.931 1249.7,293.097 1248.5,294C 1249.58,295.726 1249.74,297.559 1249,299.5C 1246.07,306.116 1243.24,312.782 1240.5,319.5C 1225.22,340.319 1204.55,352.152 1178.5,355C 1151.5,355.5 1124.5,355.667 1097.5,355.5C 1097.5,294.5 1097.5,233.5 1097.5,172.5C 1128.62,172.226 1159.62,172.893 1190.5,174.5 Z M 1190.5,212.5 C 1192.55,214.547 1194.88,216.214 1197.5,217.5C 1214.12,236.539 1219.45,258.539 1213.5,283.5C 1213.5,283.833 1213.5,284.167 1213.5,284.5C 1210.46,289.582 1207.62,294.915 1205,300.5C 1194.97,313.429 1181.81,320.429 1165.5,321.5C 1155.5,321.5 1145.5,321.5 1135.5,321.5C 1135.5,293.833 1135.5,266.167 1135.5,238.5C 1135.5,228.167 1135.5,217.833 1135.5,207.5C 1146.33,206.341 1157.33,206.174 1168.5,207C 1176.17,207.664 1183.5,209.497 1190.5,212.5 Z" /></g>
<g><path style="opacity:0.961" fill="#5d7faa" d="M 289.5,165.5 C 292.167,166.167 294.833,166.833 297.5,167.5C 306.113,170.591 314.446,174.258 322.5,178.5C 313.932,177.039 305.932,174.206 298.5,170C 294.688,169.909 291.688,168.409 289.5,165.5 Z" /></g>
<g><path style="opacity:0.998" fill="#0f67b8" d="M 465.5,178.5 C 476.283,209.709 488.116,240.376 501,270.5C 506.066,283.699 510.733,297.032 515,310.5C 517.548,316.65 520.382,322.65 523.5,328.5C 527.305,334.69 530.305,341.357 532.5,348.5C 532.5,350.833 532.5,353.167 532.5,355.5C 521.167,355.5 509.833,355.5 498.5,355.5C 496.778,349.832 494.944,344.165 493,338.5C 492.623,337.058 491.79,336.058 490.5,335.5C 488.733,333.208 487.733,330.542 487.5,327.5C 487.046,323.634 485.712,320.134 483.5,317C 457.833,316.333 432.167,316.333 406.5,317C 401.265,329.872 396.932,343.039 393.5,356.5C 380.344,357.496 367.01,357.829 353.5,357.5C 360.021,336.256 367.687,315.589 376.5,295.5C 378.474,293.572 379.974,291.239 381,288.5C 390.786,259.901 401.453,231.901 413,204.5C 416.232,193.712 419.732,183.046 423.5,172.5C 436.504,172.333 449.504,172.5 462.5,173C 463.229,175.058 464.229,176.891 465.5,178.5 Z M 464.5,268.5 C 465.326,272.813 466.66,276.98 468.5,281C 468.257,281.902 467.923,282.735 467.5,283.5C 452.512,284.817 437.512,284.817 422.5,283.5C 422.421,280.729 422.921,278.063 424,275.5C 430.2,257.353 436.7,239.353 443.5,221.5C 443.5,221.167 443.5,220.833 443.5,220.5C 444.189,219.226 445.023,219.226 446,220.5C 451.383,236.911 457.55,252.911 464.5,268.5 Z" /></g>
<g><path style="opacity:0.867" fill="#7992af" d="M 87.5,150.5 C 85.572,152.474 83.2387,153.974 80.5,155C 61.4657,163.341 42.4657,171.675 23.5,180C 21.5125,181.319 20.3459,183.152 20,185.5C 19.5017,188.817 19.335,192.15 19.5,195.5C 19.1667,195.5 18.8333,195.5 18.5,195.5C 18.3347,191.818 18.5014,188.152 19,184.5C 19.3459,182.152 20.5125,180.319 22.5,179C 43.9234,168.955 65.59,159.455 87.5,150.5 Z" /></g>
<g><path style="opacity:0.067" fill="#8a94a1" d="M 119.5,156.5 C 118.36,157.801 117.027,158.968 115.5,160C 93.7136,169.726 72.0469,179.726 50.5,190C 55.8398,192.003 60.8398,194.503 65.5,197.5C 59.8702,196.421 54.5368,194.421 49.5,191.5C 48.1667,190.5 48.1667,189.5 49.5,188.5C 72.6024,177.281 95.9357,166.615 119.5,156.5 Z" /></g>
<g><path style="opacity:0.42" fill="#889db3" d="M 423.5,168.5 C 423.5,169.167 423.5,169.833 423.5,170.5C 419.549,181.361 415.215,192.028 410.5,202.5C 410.5,201.833 410.167,201.5 409.5,201.5C 413.487,192.042 416.987,182.375 420,172.5C 420.66,170.676 421.827,169.343 423.5,168.5 Z" /></g>
<g><path style="opacity:0.533" fill="#7f90a5" d="M 222.5,63.5 C 222.084,65.7525 220.751,67.2525 218.5,68C 213.914,68.1971 209.414,68.6971 205,69.5C 204.667,78.5 204.333,87.5 204,96.5C 203.5,97 203,97.5 202.5,98C 196.36,99.1018 190.193,99.9351 184,100.5C 183.979,122.588 183.312,144.588 182,166.5C 173.433,172.539 164.266,177.706 154.5,182C 162.906,186.2 171.572,189.867 180.5,193C 181.333,193.833 182.167,194.667 183,195.5C 186.167,208.333 181.333,213.167 168.5,210C 157.167,204.667 145.833,199.333 134.5,194C 128.819,187.876 127.986,181.042 132,173.5C 133.129,171.859 134.629,170.859 136.5,170.5C 135.321,173.858 133.487,176.858 131,179.5C 130.092,183.489 130.759,187.155 133,190.5C 145.238,197.035 157.738,203.202 170.5,209C 173.167,209.667 175.833,209.667 178.5,209C 184.315,202.855 183.649,197.522 176.5,193C 168.675,190.392 161.009,187.392 153.5,184C 151.963,182.89 151.297,181.39 151.5,179.5C 162.255,176.206 172.088,171.206 181,164.5C 182.468,142.566 182.968,120.566 182.5,98.5C 187.844,98.666 193.177,98.4994 198.5,98C 200.324,97.34 201.657,96.1733 202.5,94.5C 203.33,86.0097 203.83,77.343 204,68.5C 208.08,67.6998 212.247,67.1998 216.5,67C 218.887,66.4363 220.887,65.2696 222.5,63.5 Z" /></g>
<g><path style="opacity:0.659" fill="#1e4f8a" d="M 1012.5,275.5 C 1005.5,275.5 998.5,275.5 991.5,275.5C 992.418,266.207 992.752,256.873 992.5,247.5C 995.385,247.806 998.052,247.473 1000.5,246.5C 1002.83,246.5 1005.17,246.5 1007.5,246.5C 1027.94,245.562 1037.1,234.896 1035,214.5C 1031.99,205.495 1025.83,199.995 1016.5,198C 1003.23,195.09 992.394,198.923 984,209.5C 981.407,214.871 980.241,220.538 980.5,226.5C 968.167,226.5 955.833,226.5 943.5,226.5C 941.787,225.365 941.12,223.698 941.5,221.5C 943.15,217.275 944.483,212.941 945.5,208.5C 945.313,213.845 944.98,219.178 944.5,224.5C 955.833,224.5 967.167,224.5 978.5,224.5C 979.135,217.092 981.635,210.425 986,204.5C 998.921,193.826 1012.75,192.659 1027.5,201C 1039.09,211.833 1040.59,224 1032,237.5C 1021.56,247.699 1009.06,251.365 994.5,248.5C 994.705,256.867 994.371,265.2 993.5,273.5C 998.511,273.334 1003.51,273.501 1008.5,274C 1010.06,274.21 1011.39,274.71 1012.5,275.5 Z" /></g>
<g><path style="opacity:0.039" fill="#acb8c5" d="M 1007.5,246.5 C 1012.82,244.987 1018.15,243.154 1023.5,241C 1034.16,231.909 1036.33,221.076 1030,208.5C 1022.39,200.853 1013.22,198.019 1002.5,200C 988.866,203.384 982.033,212.217 982,226.5C 981.5,227 981,227.5 980.5,228C 968.5,228.667 956.5,228.667 944.5,228C 943.944,227.617 943.611,227.117 943.5,226.5C 955.833,226.5 968.167,226.5 980.5,226.5C 980.241,220.538 981.407,214.871 984,209.5C 992.394,198.923 1003.23,195.09 1016.5,198C 1025.83,199.995 1031.99,205.495 1035,214.5C 1037.1,234.896 1027.94,245.562 1007.5,246.5 Z" /></g>
<g><path style="opacity:0.302" fill="#bac7d5" d="M 1190.5,212.5 C 1183.5,209.497 1176.17,207.664 1168.5,207C 1157.33,206.174 1146.33,206.341 1135.5,207.5C 1134.83,211.167 1134.17,214.833 1133.5,218.5C 1133.5,213.833 1133.5,209.167 1133.5,204.5C 1145.5,204.333 1157.5,204.5 1169.5,205C 1177.47,205.264 1184.47,207.764 1190.5,212.5 Z" /></g>
<g><path style="opacity:0.322" fill="#8193a9" d="M 65.5,197.5 C 81.7917,203.983 97.7917,210.983 113.5,218.5C 102.638,214.824 91.9715,210.657 81.5,206C 75.9466,203.392 70.6132,200.559 65.5,197.5 Z" /></g>
<g><path style="opacity:0.475" fill="#8a9cb1" d="M 312.5,336.5 C 312.447,340.35 310.78,343.183 307.5,345C 296.756,350.276 285.756,354.776 274.5,358.5C 284.939,353.399 295.605,348.565 306.5,344C 307.667,342.833 308.833,341.667 310,340.5C 310.5,296.501 310.667,252.501 310.5,208.5C 286.933,217.913 263.599,227.913 240.5,238.5C 242.094,237.017 243.76,235.517 245.5,234C 256.774,229.694 267.774,224.861 278.5,219.5C 287.819,215.853 296.819,211.853 305.5,207.5C 307.435,206.85 309.435,206.517 311.5,206.5C 312.484,249.803 312.817,293.136 312.5,336.5 Z" /></g>
<g><path style="opacity:0.102" fill="#b1c0d1" d="M 666.5,259.5 C 665.109,237.436 653.443,224.436 631.5,220.5C 614.276,216.404 596.943,216.571 579.5,221C 555.314,229.482 544.814,246.315 548,271.5C 554.033,283.953 563.866,291.786 577.5,295C 591.15,297.581 604.483,300.748 617.5,304.5C 600.845,302.502 584.512,299.002 568.5,294C 547.374,284.577 540.208,268.744 547,246.5C 557.539,227.013 574.039,216.846 596.5,216C 616.027,213.31 634.36,216.643 651.5,226C 659.269,231.704 664.436,239.204 667,248.5C 667.81,252.358 667.643,256.024 666.5,259.5 Z" /></g>
<g><path style="opacity:0.999" fill="#0f67b8" d="M 631.5,220.5 C 641.238,223.29 649.738,228.29 657,235.5C 661.791,242.041 664.291,249.374 664.5,257.5C 653.833,257.5 643.167,257.5 632.5,257.5C 632.108,252.117 629.441,248.45 624.5,246.5C 622.883,245.962 621.216,245.629 619.5,245.5C 618.571,244.685 617.571,243.852 616.5,243C 609.833,242.333 603.167,242.333 596.5,243C 585.535,246.758 582.201,253.925 586.5,264.5C 586.511,266.017 587.177,267.184 588.5,268C 591.674,269.725 595.007,271.058 598.5,272C 615.323,275.031 631.99,278.698 648.5,283C 651.167,284.333 653.833,285.667 656.5,287C 658.746,289.752 661.412,291.918 664.5,293.5C 669.191,305.578 669.691,317.911 666,330.5C 663.311,335.894 660.145,340.894 656.5,345.5C 656.167,346.5 655.5,347.167 654.5,347.5C 654.44,346.957 654.107,346.624 653.5,346.5C 636.843,356.329 618.843,360.162 599.5,358C 583.003,357.121 568.669,351.288 556.5,340.5C 553.307,337.954 551.307,334.621 550.5,330.5C 550.112,326.448 549.445,322.448 548.5,318.5C 560.148,317.501 571.814,317.168 583.5,317.5C 586.36,327.451 593.027,332.951 603.5,334C 616.485,337.175 627.485,334.009 636.5,324.5C 639.995,315.281 637.329,308.781 628.5,305C 611.297,300.447 593.963,296.447 576.5,293C 547.857,283.188 541.024,265.021 556,238.5C 567.546,226.48 581.712,219.98 598.5,219C 609.55,218.392 620.55,218.892 631.5,220.5 Z" /></g>
<g><path style="opacity:0.999" fill="#0f67b7" d="M 807.5,238.5 C 808.222,239.551 809.222,240.218 810.5,240.5C 810.704,242.685 811.37,244.685 812.5,246.5C 812.804,249.522 813.304,252.522 814,255.5C 814.209,288.849 814.709,322.183 815.5,355.5C 805.833,355.5 796.167,355.5 786.5,355.5C 785.591,349.15 784.258,343.15 782.5,337.5C 782.167,337.5 781.833,337.5 781.5,337.5C 776.364,342.791 770.697,347.624 764.5,352C 746.48,360.665 728.48,360.665 710.5,352C 694.598,341.372 689.098,326.539 694,307.5C 695.19,302.787 697.19,298.453 700,294.5C 703.812,291.031 707.645,287.698 711.5,284.5C 722.965,278.351 735.298,275.018 748.5,274.5C 759.833,274.5 771.167,274.5 782.5,274.5C 782.821,269.305 782.487,264.305 781.5,259.5C 779.77,252.761 775.77,247.761 769.5,244.5C 768.653,243.034 767.32,242.2 765.5,242C 753.544,239.032 743.378,241.865 735,250.5C 732.518,254.451 731.351,258.785 731.5,263.5C 720.833,263.5 710.167,263.5 699.5,263.5C 700.298,255.712 701.631,248.045 703.5,240.5C 708.354,230.906 716.021,224.906 726.5,222.5C 749.393,216.237 771.727,217.737 793.5,227C 798.691,230.373 803.358,234.206 807.5,238.5 Z M 751.5,297.5 C 761.5,297.5 771.5,297.5 781.5,297.5C 781.666,302.511 781.499,307.511 781,312.5C 769.715,330.317 754.215,335.65 734.5,328.5C 727.504,319.984 727.838,311.818 735.5,304C 740.566,300.928 745.9,298.762 751.5,297.5 Z" /></g>
<g><path style="opacity:0.106" fill="#b9c4d0" d="M 928.5,198.5 C 928.41,188.482 928.743,178.482 929.5,168.5C 914.773,164.438 900.106,164.605 885.5,169C 873.028,173.462 864.861,181.962 861,194.5C 859.624,203.098 859.124,211.765 859.5,220.5C 859.5,221.167 859.167,221.5 858.5,221.5C 850.981,221.825 843.648,221.492 836.5,220.5C 842.979,219.509 849.646,219.176 856.5,219.5C 854.691,183.644 871.691,164.978 907.5,163.5C 914.961,163.903 922.295,165.069 929.5,167C 930.894,167.956 931.561,169.289 931.5,171C 931.041,180.373 930.041,189.54 928.5,198.5 Z" /></g>
<g><path style="opacity:0.431" fill="#b8c4d1" d="M 927.5,199.5 C 920.362,199.557 913.029,199.724 905.5,200C 901.23,201.27 898.73,204.104 898,208.5C 897.501,212.152 897.335,215.818 897.5,219.5C 907.172,219.334 916.839,219.5 926.5,220C 927,220.5 927.5,221 928,221.5C 928.667,231.5 928.667,241.5 928,251.5C 927.617,252.056 927.117,252.389 926.5,252.5C 926.5,252.167 926.5,251.833 926.5,251.5C 926.5,241.5 926.5,231.5 926.5,221.5C 916.167,221.5 905.833,221.5 895.5,221.5C 891.53,205.33 897.697,197.33 914,197.5C 918.758,197.366 923.258,198.032 927.5,199.5 Z" /></g>
<g><path style="opacity:0.102" fill="#b5c4d2" d="M 810.5,240.5 C 809.222,240.218 808.222,239.551 807.5,238.5C 802.495,230.641 795.495,225.141 786.5,222C 768.327,216.886 749.994,216.22 731.5,220C 729.509,220.374 727.842,221.207 726.5,222.5C 716.021,224.906 708.354,230.906 703.5,240.5C 701.163,242.965 699.663,245.965 699,249.5C 697.809,254.767 697.309,260.101 697.5,265.5C 709.58,265.188 721.58,265.521 733.5,266.5C 721.674,267.66 709.674,267.826 697.5,267C 694.414,256.132 696.247,245.966 703,236.5C 712.853,224.32 725.686,217.487 741.5,216C 761.693,213.12 780.693,216.453 798.5,226C 803.46,230.119 807.46,234.952 810.5,240.5 Z" /></g>
<g><path style="opacity:0.882" fill="#184e8b" d="M 807.5,238.5 C 803.358,234.206 798.691,230.373 793.5,227C 771.727,217.737 749.393,216.237 726.5,222.5C 727.842,221.207 729.509,220.374 731.5,220C 749.994,216.22 768.327,216.886 786.5,222C 795.495,225.141 802.495,230.641 807.5,238.5 Z" /></g>
<g><path style="opacity:0.227" fill="#6fe4ec" d="M 1135.5,207.5 C 1135.5,217.833 1135.5,228.167 1135.5,238.5C 1134.83,233.833 1134.17,229.167 1133.5,224.5C 1133.5,222.5 1133.5,220.5 1133.5,218.5C 1134.17,214.833 1134.83,211.167 1135.5,207.5 Z" /></g>
<g><path style="opacity:0.89" fill="#1f528e" d="M 423.5,170.5 C 436.504,170.333 449.504,170.5 462.5,171C 464.377,173.126 465.377,175.626 465.5,178.5C 464.229,176.891 463.229,175.058 462.5,173C 449.504,172.5 436.504,172.333 423.5,172.5C 419.732,183.046 416.232,193.712 413,204.5C 401.453,231.901 390.786,259.901 381,288.5C 379.974,291.239 378.474,293.572 376.5,295.5C 387.818,264.551 399.151,233.551 410.5,202.5C 415.215,192.028 419.549,181.361 423.5,170.5 Z" /></g>
<g><path style="opacity:0.722" fill="#255793" d="M 1199.5,217.5 C 1209.11,224.378 1214.95,233.712 1217,245.5C 1218.51,256.122 1218.84,266.789 1218,277.5C 1217.3,281.953 1215.8,285.953 1213.5,289.5C 1213.5,287.833 1213.5,286.167 1213.5,284.5C 1213.5,284.167 1213.5,283.833 1213.5,283.5C 1215.07,281.189 1215.9,278.522 1216,275.5C 1219.62,253.333 1214.12,233.999 1199.5,217.5 Z" /></g>
<g><path style="opacity:0.635" fill="#22518c" d="M 460.5,253.5 C 455.919,240.774 450.919,228.108 445.5,215.5C 444.641,214.226 443.974,214.392 443.5,216C 442.392,217.677 442.392,219.177 443.5,220.5C 443.5,220.833 443.5,221.167 443.5,221.5C 442.624,221.369 441.957,221.702 441.5,222.5C 434.453,239.137 428.287,256.137 423,273.5C 421.953,276.859 420.453,279.859 418.5,282.5C 425.982,258.888 433.982,235.388 442.5,212C 443.944,211.219 445.277,211.386 446.5,212.5C 451.152,224.109 455.652,235.776 460,247.5C 460.495,249.473 460.662,251.473 460.5,253.5 Z" /></g>
<g><path style="opacity:0.286" fill="#71869e" d="M 84.5,227.5 C 68.9465,220.89 53.2799,214.557 37.5,208.5C 37.3333,252.501 37.5,296.501 38,340.5C 40.4795,342.314 42.9795,343.981 45.5,345.5C 41.8177,345.409 38.651,344.076 36,341.5C 35.5,296.501 35.3333,251.501 35.5,206.5C 37.9267,206.523 40.26,207.023 42.5,208C 56.9509,213.728 70.9509,220.228 84.5,227.5 Z" /></g>
<g><path style="opacity:0.094" fill="#a1b1c3" d="M 460.5,253.5 C 461.833,258.5 463.167,263.5 464.5,268.5C 457.55,252.911 451.383,236.911 446,220.5C 445.023,219.226 444.189,219.226 443.5,220.5C 442.392,219.177 442.392,217.677 443.5,216C 443.974,214.392 444.641,214.226 445.5,215.5C 450.919,228.108 455.919,240.774 460.5,253.5 Z" /></g>
<g><path style="opacity:0.043" fill="#a9bacc" d="M 1197.5,217.5 C 1198.17,217.5 1198.83,217.5 1199.5,217.5C 1214.12,233.999 1219.62,253.333 1216,275.5C 1215.9,278.522 1215.07,281.189 1213.5,283.5C 1219.45,258.539 1214.12,236.539 1197.5,217.5 Z" /></g>
<g><path style="opacity:0.251" fill="#9db2c3" d="M 834.5,221.5 C 835.494,231.319 835.827,241.319 835.5,251.5C 834.778,251.082 834.278,250.416 834,249.5C 833.195,240.089 833.362,230.756 834.5,221.5 Z" /></g>
<g><path style="opacity:1" fill="#4675b0" d="M 278.5,219.5 C 267.774,224.861 256.774,229.694 245.5,234C 243.76,235.517 242.094,237.017 240.5,238.5C 234.335,241.555 228.001,244.222 221.5,246.5C 224.895,242.279 229.228,239.445 234.5,238C 236.167,237 237.5,235.667 238.5,234C 243.901,233.372 248.734,231.538 253,228.5C 257.438,227.801 261.438,226.134 265,223.5C 269.257,221.476 273.757,220.142 278.5,219.5 Z" /></g>
<g><path style="opacity:0.184" fill="#8392a4" d="M 297.5,190.5 C 291.551,194.48 285.217,197.98 278.5,201C 243.883,215.312 209.549,230.145 175.5,245.5C 162.393,240.413 149.393,235.246 136.5,230C 128.639,226.443 120.972,222.609 113.5,218.5C 134.324,226.573 154.991,235.239 175.5,244.5C 215.953,225.939 256.62,207.939 297.5,190.5 Z" /></g>
<g><path style="opacity:0.655" fill="#7f93aa" d="M 84.5,227.5 C 89.4773,228.984 94.4773,230.484 99.5,232C 119.024,240.991 138.69,249.824 158.5,258.5C 160.076,259.143 161.41,260.143 162.5,261.5C 139.96,251.731 117.293,242.231 94.5,233C 90.9439,231.392 87.6106,229.559 84.5,227.5 Z" /></g>
<g><path style="opacity:0.145" fill="#b7c4d2" d="M 469.5,183.5 C 480.247,207.673 489.913,232.34 498.5,257.5C 497.371,256.53 496.371,255.364 495.5,254C 487.125,232.088 478.625,210.255 470,188.5C 469.506,186.866 469.34,185.199 469.5,183.5 Z" /></g>
<g><path style="opacity:0.443" fill="#899fb8" d="M 1000.5,246.5 C 998.052,247.473 995.385,247.806 992.5,247.5C 992.752,256.873 992.418,266.207 991.5,275.5C 998.5,275.5 1005.5,275.5 1012.5,275.5C 1013.17,276.167 1013.83,276.833 1014.5,277.5C 1006.87,276.642 999.201,276.309 991.5,276.5C 990.883,276.389 990.383,276.056 990,275.5C 989.667,266.155 990,256.821 991,247.5C 994.038,245.307 997.204,244.973 1000.5,246.5 Z" /></g>
<g><path style="opacity:0.008" fill="#acbbc9" d="M 619.5,245.5 C 611.119,242.755 602.786,242.922 594.5,246C 582.607,253.092 582.607,260.092 594.5,267C 598.333,268.034 601.999,269.2 605.5,270.5C 598.486,270.495 592.153,268.495 586.5,264.5C 582.201,253.925 585.535,246.758 596.5,243C 603.167,242.333 609.833,242.333 616.5,243C 617.571,243.852 618.571,244.685 619.5,245.5 Z" /></g>
<g><path style="opacity:0.804" fill="#2a558e" d="M 465.5,178.5 C 466.593,180.349 467.926,182.016 469.5,183.5C 469.34,185.199 469.506,186.866 470,188.5C 478.625,210.255 487.125,232.088 495.5,254C 496.371,255.364 497.371,256.53 498.5,257.5C 499.167,257.5 499.5,257.833 499.5,258.5C 498.26,262.768 499.593,266.101 503.5,268.5C 503.5,268.833 503.5,269.167 503.5,269.5C 502.957,269.56 502.624,269.893 502.5,270.5C 509.576,289.95 516.576,309.283 523.5,328.5C 520.382,322.65 517.548,316.65 515,310.5C 510.733,297.032 506.066,283.699 501,270.5C 488.116,240.376 476.283,209.709 465.5,178.5 Z" /></g>
<g><path style="opacity:0.8" fill="#26528a" d="M 834.5,221.5 C 834.842,220.662 835.508,220.328 836.5,220.5C 843.648,221.492 850.981,221.825 858.5,221.5C 857.391,222.29 856.058,222.79 854.5,223C 848.843,223.499 843.176,223.666 837.5,223.5C 837.5,232.167 837.5,240.833 837.5,249.5C 844.913,248.872 851.913,249.539 858.5,251.5C 850.981,251.175 843.648,251.508 836.5,252.5C 835.833,252.5 835.5,252.167 835.5,251.5C 835.827,241.319 835.494,231.319 834.5,221.5 Z" /></g>
<g><path style="opacity:0.039" fill="#b2bfcd" d="M 1027.5,359.5 C 1028.5,358.833 1029.5,358.167 1030.5,357.5C 1038.56,355.142 1046.23,351.642 1053.5,347C 1069.14,333.417 1075.31,316.25 1072,295.5C 1071.21,290.647 1069.38,286.314 1066.5,282.5C 1060.04,271.71 1050.71,264.71 1038.5,261.5C 1058.53,252.962 1069.53,237.795 1071.5,216C 1071.31,210.874 1070.31,206.04 1068.5,201.5C 1067.43,197.86 1065.76,194.526 1063.5,191.5C 1056.7,179.912 1046.7,172.412 1033.5,169C 1011.73,163.013 990.73,165.013 970.5,175C 968.907,175.949 967.574,177.115 966.5,178.5C 961.311,182.176 956.478,186.509 952,191.5C 948.712,196.742 946.545,202.409 945.5,208.5C 944.483,212.941 943.15,217.275 941.5,221.5C 941.547,210.637 944.38,200.637 950,191.5C 954.867,186.968 959.367,182.134 963.5,177C 992.472,159.882 1021.81,159.216 1051.5,175C 1073.72,193.424 1078.55,215.591 1066,241.5C 1060.37,250.124 1052.87,256.624 1043.5,261C 1069.76,272.982 1079.59,293.148 1073,321.5C 1065.57,343.427 1050.41,356.094 1027.5,359.5 Z" /></g>
<g><path style="opacity:0.839" fill="#25538d" d="M 1063.5,191.5 C 1059.41,186.58 1054.74,182.08 1049.5,178C 1045.5,176 1041.5,174 1037.5,172C 1012.71,164.231 989.042,166.398 966.5,178.5C 967.574,177.115 968.907,175.949 970.5,175C 990.73,165.013 1011.73,163.013 1033.5,169C 1046.7,172.412 1056.7,179.912 1063.5,191.5 Z" /></g>
<g><path style="opacity:0.035" fill="#a9a9a9" d="M 837.5,253.5 C 843.979,252.509 850.646,252.176 857.5,252.5C 857.5,287.5 857.5,322.5 857.5,357.5C 856.502,323.004 856.168,288.337 856.5,253.5C 850.167,253.5 843.833,253.5 837.5,253.5 Z" /></g>
<g><path style="opacity:0.976" fill="#547bae" d="M 221.5,246.5 C 210.688,251.736 199.688,256.736 188.5,261.5C 187.5,261.5 186.5,261.5 185.5,261.5C 187.013,259.484 187.847,257.151 188,254.5C 190.401,255.602 192.901,255.769 195.5,255C 201.922,253.234 207.922,250.568 213.5,247C 216.146,246.503 218.813,246.336 221.5,246.5 Z" /></g>
<g><path style="opacity:0.631" fill="#25558f" d="M 1068.5,201.5 C 1070.31,206.04 1071.31,210.874 1071.5,216C 1069.53,237.795 1058.53,252.962 1038.5,261.5C 1050.71,264.71 1060.04,271.71 1066.5,282.5C 1062.75,279.253 1059.08,275.753 1055.5,272C 1049.12,267.647 1042.45,264.147 1035.5,261.5C 1041.51,258.099 1047.51,254.599 1053.5,251C 1061.59,243.991 1066.42,235.158 1068,224.5C 1068.5,216.841 1068.67,209.174 1068.5,201.5 Z" /></g>
<g><path style="opacity:0.013" fill="#f0f3f7" d="M 810.5,240.5 C 811.885,241.574 813.051,242.907 814,244.5C 815.713,249.396 817.046,254.396 818,259.5C 818.5,285.831 818.667,312.165 818.5,338.5C 817.833,313.5 817.167,288.5 816.5,263.5C 815.74,259.919 815.24,256.252 815,252.5C 814.434,250.277 813.6,248.277 812.5,246.5C 811.37,244.685 810.704,242.685 810.5,240.5 Z" /></g>
<g><path style="opacity:0.165" fill="#eaeaeb" d="M 897.5,251.5 C 907.167,251.5 916.833,251.5 926.5,251.5C 926.5,251.833 926.5,252.167 926.5,252.5C 917.348,253.494 908.015,253.827 898.5,253.5C 898.832,288.337 898.498,323.004 897.5,357.5C 897.5,322.167 897.5,286.833 897.5,251.5 Z" /></g>
<g><path style="opacity:0.639" fill="#1e4e88" d="M 631.5,220.5 C 653.443,224.436 665.109,237.436 666.5,259.5C 666.5,260.167 666.167,260.5 665.5,260.5C 654.346,259.505 643.012,259.172 631.5,259.5C 631.001,254.169 628.668,249.836 624.5,246.5C 629.441,248.45 632.108,252.117 632.5,257.5C 643.167,257.5 653.833,257.5 664.5,257.5C 664.291,249.374 661.791,242.041 657,235.5C 649.738,228.29 641.238,223.29 631.5,220.5 Z" /></g>
<g><path style="opacity:0.365" fill="#c2cbd6" d="M 619.5,245.5 C 621.216,245.629 622.883,245.962 624.5,246.5C 628.668,249.836 631.001,254.169 631.5,259.5C 643.012,259.172 654.346,259.505 665.5,260.5C 654.341,261.659 643.008,261.826 631.5,261C 629.192,258.64 627.692,255.806 627,252.5C 624.604,249.933 622.104,247.6 619.5,245.5 Z" /></g>
<g><path style="opacity:0.82" fill="#285b97" d="M 1191.5,174.5 C 1213.8,179.971 1231.13,192.304 1243.5,211.5C 1246.21,214.247 1247.87,217.58 1248.5,221.5C 1257.62,249.417 1257.78,277.417 1249,305.5C 1246.73,310.581 1243.9,315.248 1240.5,319.5C 1243.24,312.782 1246.07,306.116 1249,299.5C 1249.74,297.559 1249.58,295.726 1248.5,294C 1249.7,293.097 1250.53,291.931 1251,290.5C 1253.25,276.582 1253.92,262.582 1253,248.5C 1248.49,211.809 1228.66,187.809 1193.5,176.5C 1192.29,176.253 1191.62,175.586 1191.5,174.5 Z" /></g>
<g><path style="opacity:0.431" fill="#b7c5d2" d="M 499.5,258.5 C 500.639,261.918 501.972,265.251 503.5,268.5C 499.593,266.101 498.26,262.768 499.5,258.5 Z" /></g>
<g><path style="opacity:0.882" fill="#175192" d="M 703.5,240.5 C 701.631,248.045 700.298,255.712 699.5,263.5C 710.167,263.5 720.833,263.5 731.5,263.5C 731.351,258.785 732.518,254.451 735,250.5C 743.378,241.865 753.544,239.032 765.5,242C 767.32,242.2 768.653,243.034 769.5,244.5C 760.288,241.396 751.288,241.896 742.5,246C 735.724,251.157 732.724,257.99 733.5,266.5C 721.58,265.521 709.58,265.188 697.5,265.5C 697.309,260.101 697.809,254.767 699,249.5C 699.663,245.965 701.163,242.965 703.5,240.5 Z" /></g>
<g><path style="opacity:0.247" fill="#cecfcf" d="M 1095.5,170.5 C 1095.5,232.833 1095.5,295.167 1095.5,357.5C 1094.88,357.389 1094.38,357.056 1094,356.5C 1093.33,294.833 1093.33,233.167 1094,171.5C 1094.38,170.944 1094.88,170.611 1095.5,170.5 Z" /></g>
<g><path style="opacity:0.388" fill="#b9c5d2" d="M 443.5,221.5 C 436.7,239.353 430.2,257.353 424,275.5C 422.921,278.063 422.421,280.729 422.5,283.5C 421.432,284.434 420.099,284.768 418.5,284.5C 418.5,283.833 418.5,283.167 418.5,282.5C 420.453,279.859 421.953,276.859 423,273.5C 428.287,256.137 434.453,239.137 441.5,222.5C 441.957,221.702 442.624,221.369 443.5,221.5 Z" /></g>
<g><path style="opacity:1" fill="#458ac8" d="M 312.5,336.5 C 312.817,293.136 312.484,249.803 311.5,206.5C 309.435,206.517 307.435,206.85 305.5,207.5C 307.82,203.524 310.32,203.524 313,207.5C 313.831,250.669 313.665,293.669 312.5,336.5 Z" /></g>
<g><path style="opacity:0.784" fill="#21518d" d="M 586.5,264.5 C 592.153,268.495 598.486,270.495 605.5,270.5C 605.833,270.5 606.167,270.5 606.5,270.5C 607.429,271.315 608.429,272.148 609.5,273C 623.438,274.822 637.104,277.822 650.5,282C 653.833,284 657.167,286 660.5,288C 662.464,289.451 663.797,291.284 664.5,293.5C 661.412,291.918 658.746,289.752 656.5,287C 653.833,285.667 651.167,284.333 648.5,283C 631.99,278.698 615.323,275.031 598.5,272C 595.007,271.058 591.674,269.725 588.5,268C 587.177,267.184 586.511,266.017 586.5,264.5 Z" /></g>
<g><path style="opacity:0.471" fill="#7c95b4" d="M 781.5,259.5 C 782.487,264.305 782.821,269.305 782.5,274.5C 771.167,274.5 759.833,274.5 748.5,274.5C 759.321,273.505 770.321,273.172 781.5,273.5C 781.5,268.833 781.5,264.167 781.5,259.5 Z" /></g>
<g><path style="opacity:0.902" fill="#25528a" d="M 928.5,198.5 C 928.5,199.167 928.167,199.5 927.5,199.5C 923.258,198.032 918.758,197.366 914,197.5C 897.697,197.33 891.53,205.33 895.5,221.5C 905.833,221.5 916.167,221.5 926.5,221.5C 926.5,231.5 926.5,241.5 926.5,251.5C 916.833,251.5 907.167,251.5 897.5,251.5C 896.502,286.663 896.168,321.996 896.5,357.5C 884.167,357.5 871.833,357.5 859.5,357.5C 859.5,322.167 859.5,286.833 859.5,251.5C 860.499,285.427 860.833,320.094 860.5,355.5C 871.833,355.5 883.167,355.5 894.5,355.5C 894.333,320.498 894.5,285.498 895,250.5C 904.75,249.514 914.584,249.181 924.5,249.5C 924.5,240.833 924.5,232.167 924.5,223.5C 914.828,223.666 905.161,223.5 895.5,223C 894.358,216.916 894.191,210.749 895,204.5C 896.892,200.942 899.725,198.442 903.5,197C 911.095,195.644 918.762,195.144 926.5,195.5C 927.761,186.957 927.761,178.457 926.5,170C 908.587,165.085 891.587,167.085 875.5,176C 862.594,188.132 857.26,202.966 859.5,220.5C 859.124,211.765 859.624,203.098 861,194.5C 864.861,181.962 873.028,173.462 885.5,169C 900.106,164.605 914.773,164.438 929.5,168.5C 928.743,178.482 928.41,188.482 928.5,198.5 Z" /></g>
<g><path style="opacity:0.216" fill="#b3c4d7" d="M 464.5,268.5 C 465.167,268.5 465.833,268.5 466.5,268.5C 467.539,273.616 469.205,278.616 471.5,283.5C 470.042,284.782 468.708,284.782 467.5,283.5C 467.923,282.735 468.257,281.902 468.5,281C 466.66,276.98 465.326,272.813 464.5,268.5 Z" /></g>
<g><path style="opacity:0.22" fill="#b3c2d2" d="M 769.5,244.5 C 775.77,247.761 779.77,252.761 781.5,259.5C 781.5,264.167 781.5,268.833 781.5,273.5C 770.321,273.172 759.321,273.505 748.5,274.5C 735.298,275.018 722.965,278.351 711.5,284.5C 708.726,285.723 706.059,287.223 703.5,289C 700.582,292.097 697.582,294.93 694.5,297.5C 696.158,293.328 698.825,289.828 702.5,287C 715.519,278.55 729.852,273.883 745.5,273C 757.162,272.5 768.829,272.333 780.5,272.5C 783.08,258.15 777.414,248.983 763.5,245C 753.583,242.863 745.083,245.363 738,252.5C 736.602,257.343 735.102,262.01 733.5,266.5C 732.724,257.99 735.724,251.157 742.5,246C 751.288,241.896 760.288,241.396 769.5,244.5 Z" /></g>
<g><path style="opacity:0.104" fill="#f5f8f9" d="M 991.5,276.5 C 999.201,276.309 1006.87,276.642 1014.5,277.5C 1016,277.989 1017.33,278.655 1018.5,279.5C 1017.83,279.5 1017.5,279.833 1017.5,280.5C 1009.99,278.857 1002.32,278.024 994.5,278C 993.263,277.768 992.263,277.268 991.5,276.5 Z" /></g>
<g><path style="opacity:0.471" fill="#a2b8cf" d="M 858.5,251.5 C 858.833,251.5 859.167,251.5 859.5,251.5C 859.5,286.833 859.5,322.167 859.5,357.5C 871.833,357.5 884.167,357.5 896.5,357.5C 896.168,321.996 896.502,286.663 897.5,251.5C 897.5,286.833 897.5,322.167 897.5,357.5C 897.389,358.117 897.056,358.617 896.5,359C 883.833,359.667 871.167,359.667 858.5,359C 857.944,358.617 857.611,358.117 857.5,357.5C 858.498,322.337 858.832,287.004 858.5,251.5 Z" /></g>
<g><path style="opacity:0.383" fill="#214277" d="M 466.5,268.5 C 468.787,272.152 470.621,276.152 472,280.5C 472.495,282.473 472.662,284.473 472.5,286.5C 454.497,286.667 436.497,286.5 418.5,286C 417.262,285.31 417.262,284.81 418.5,284.5C 420.099,284.768 421.432,284.434 422.5,283.5C 437.512,284.817 452.512,284.817 467.5,283.5C 468.708,284.782 470.042,284.782 471.5,283.5C 469.205,278.616 467.539,273.616 466.5,268.5 Z" /></g>
<g><path style="opacity:0.02" fill="#a7b4c4" d="M 1096.5,169.5 C 1096.5,169.833 1096.5,170.167 1096.5,170.5C 1096.5,232.833 1096.5,295.167 1096.5,357.5C 1120.84,357.667 1145.17,357.5 1169.5,357C 1194.02,356.5 1215.19,348 1233,331.5C 1235.77,327.612 1238.27,323.612 1240.5,319.5C 1243.9,315.248 1246.73,310.581 1249,305.5C 1257.78,277.417 1257.62,249.417 1248.5,221.5C 1250.17,222.343 1251.34,223.676 1252,225.5C 1254.45,232.314 1256.12,239.314 1257,246.5C 1257.87,260.87 1257.54,275.203 1256,289.5C 1255.27,295.765 1253.6,301.765 1251,307.5C 1237.17,336.969 1214.01,353.802 1181.5,358C 1153.19,359.567 1124.86,359.901 1096.5,359C 1095.94,358.617 1095.61,358.117 1095.5,357.5C 1095.5,295.167 1095.5,232.833 1095.5,170.5C 1095.5,169.833 1095.83,169.5 1096.5,169.5 Z" /></g>
<g><path style="opacity:0.227" fill="#a9bbcb" d="M 1133.5,224.5 C 1134.17,229.167 1134.83,233.833 1135.5,238.5C 1135.5,266.167 1135.5,293.833 1135.5,321.5C 1145.5,321.5 1155.5,321.5 1165.5,321.5C 1165.5,321.833 1165.5,322.167 1165.5,322.5C 1155.01,323.494 1144.35,323.828 1133.5,323.5C 1133.5,290.5 1133.5,257.5 1133.5,224.5 Z" /></g>
<g><path style="opacity:0.573" fill="#506e92" d="M 18.5,195.5 C 18.8333,195.5 19.1667,195.5 19.5,195.5C 19.3333,246.501 19.5,297.501 20,348.5C 20.3333,350.5 20.6667,352.5 21,354.5C 23.8398,356.595 26.6731,358.595 29.5,360.5C 25.2033,359.934 21.7033,357.934 19,354.5C 18.5,301.501 18.3333,248.501 18.5,195.5 Z" /></g>
<g><path style="opacity:0.063" fill="#a5b2c0" d="M 1017.5,280.5 C 1017.5,279.833 1017.83,279.5 1018.5,279.5C 1021.59,280.213 1024.59,281.213 1027.5,282.5C 1037.26,292.393 1039.1,303.727 1033,316.5C 1028.98,322.259 1023.48,325.592 1016.5,326.5C 1022.37,323.619 1027.54,319.619 1032,314.5C 1035.93,304.577 1034.93,295.243 1029,286.5C 1025.72,283.461 1021.89,281.461 1017.5,280.5 Z" /></g>
<g><path style="opacity:0.735" fill="#1f518d" d="M 776.5,322.5 C 778.824,319.862 780.657,316.862 782,313.5C 782.499,307.509 782.666,301.509 782.5,295.5C 767.995,294.733 753.662,295.733 739.5,298.5C 743.387,296.073 747.721,294.573 752.5,294C 763.161,293.5 773.828,293.333 784.5,293.5C 784.666,300.508 784.5,307.508 784,314.5C 782.973,318.587 780.473,321.254 776.5,322.5 Z" /></g>
<g><path style="opacity:0.118" fill="#fbfbfc" d="M 962.5,297.5 C 954.167,297.5 945.833,297.5 937.5,297.5C 937.918,296.778 938.584,296.278 939.5,296C 942.667,295.833 945.833,295.667 949,295.5C 953.772,295.308 958.272,295.975 962.5,297.5 Z" /></g>
<g><path style="opacity:0.878" fill="#26538c" d="M 631.5,220.5 C 620.55,218.892 609.55,218.392 598.5,219C 581.712,219.98 567.546,226.48 556,238.5C 541.024,265.021 547.857,283.188 576.5,293C 593.963,296.447 611.297,300.447 628.5,305C 637.329,308.781 639.995,315.281 636.5,324.5C 627.485,334.009 616.485,337.175 603.5,334C 593.027,332.951 586.36,327.451 583.5,317.5C 571.814,317.168 560.148,317.501 548.5,318.5C 549.445,322.448 550.112,326.448 550.5,330.5C 549.326,329.486 548.66,328.153 548.5,326.5C 548.167,323.167 547.833,319.833 547.5,316.5C 560.167,316.5 572.833,316.5 585.5,316.5C 586.287,322.8 589.621,327.3 595.5,330C 597.134,330.494 598.801,330.66 600.5,330.5C 603.526,332.019 606.859,332.685 610.5,332.5C 613.025,332.497 615.359,332.163 617.5,331.5C 617.833,331.5 618.167,331.5 618.5,331.5C 632.89,330.638 637.89,323.471 633.5,310C 628.525,307.064 623.192,305.231 617.5,304.5C 604.483,300.748 591.15,297.581 577.5,295C 563.866,291.786 554.033,283.953 548,271.5C 544.814,246.315 555.314,229.482 579.5,221C 596.943,216.571 614.276,216.404 631.5,220.5 Z" /></g>
<g><path style="opacity:0.882" fill="#3a74ad" d="M 322.5,178.5 C 325.732,178.772 327.732,180.438 328.5,183.5C 328.832,239.669 328.499,295.669 327.5,351.5C 327.667,295.832 327.5,240.166 327,184.5C 326.667,183.5 326.333,182.5 326,181.5C 324.482,180.837 323.315,179.837 322.5,178.5 Z" /></g>
<g><path style="opacity:0.925" fill="#447ab2" d="M 158.5,258.5 C 161.747,258.415 164.581,259.415 167,261.5C 167.832,307.335 167.665,353.002 166.5,398.5C 166.667,353.499 166.5,308.499 166,263.5C 165.184,262.177 164.017,261.511 162.5,261.5C 161.41,260.143 160.076,259.143 158.5,258.5 Z" /></g>
<g><path style="opacity:0.773" fill="#2c578b" d="M 812.5,246.5 C 813.6,248.277 814.434,250.277 815,252.5C 815.24,256.252 815.74,259.919 816.5,263.5C 816.212,294.851 816.546,326.185 817.5,357.5C 806.48,357.832 795.48,357.499 784.5,356.5C 782.898,350.282 782.231,343.948 782.5,337.5C 784.258,343.15 785.591,349.15 786.5,355.5C 796.167,355.5 805.833,355.5 815.5,355.5C 814.709,322.183 814.209,288.849 814,255.5C 813.304,252.522 812.804,249.522 812.5,246.5 Z" /></g>
<g><path style="opacity:0.035" fill="#5f718f" d="M 585.5,316.5 C 572.833,316.5 560.167,316.5 547.5,316.5C 547.833,319.833 548.167,323.167 548.5,326.5C 546.989,323.456 546.322,320.122 546.5,316.5C 546.611,315.883 546.944,315.383 547.5,315C 548.833,314.833 550.167,314.667 551.5,314.5C 560.495,315.755 569.495,315.755 578.5,314.5C 580.5,314.667 582.5,314.833 584.5,315C 585.056,315.383 585.389,315.883 585.5,316.5 Z" /></g>
<g><path style="opacity:0.325" fill="#d2e1ec" d="M 858.5,251.5 C 858.832,287.004 858.498,322.337 857.5,357.5C 857.5,322.5 857.5,287.5 857.5,252.5C 850.646,252.176 843.979,252.509 837.5,253.5C 836.833,253.5 836.5,253.167 836.5,252.5C 843.648,251.508 850.981,251.175 858.5,251.5 Z" /></g>
<g><path style="opacity:0.227" fill="#c6d1dc" d="M 617.5,304.5 C 623.192,305.231 628.525,307.064 633.5,310C 637.89,323.471 632.89,330.638 618.5,331.5C 622.176,330.322 625.843,328.822 629.5,327C 633.962,322.178 634.629,316.845 631.5,311C 626.978,308.335 622.311,306.169 617.5,304.5 Z" /></g>
<g><path style="opacity:0.337" fill="#b7c2cd" d="M 1213.5,284.5 C 1213.5,286.167 1213.5,287.833 1213.5,289.5C 1204.71,310.571 1188.71,321.571 1165.5,322.5C 1165.5,322.167 1165.5,321.833 1165.5,321.5C 1181.81,320.429 1194.97,313.429 1205,300.5C 1207.62,294.915 1210.46,289.582 1213.5,284.5 Z" /></g>
<g><path style="opacity:0.157" fill="#abbaca" d="M 585.5,316.5 C 588.586,323.254 593.586,327.921 600.5,330.5C 598.801,330.66 597.134,330.494 595.5,330C 589.621,327.3 586.287,322.8 585.5,316.5 Z" /></g>
<g><path style="opacity:0.141" fill="#b6c3cf" d="M 936.5,298.5 C 936.385,320.436 945.385,337.603 963.5,350C 968.19,352.729 973.19,354.563 978.5,355.5C 983.713,358.211 989.38,359.544 995.5,359.5C 1003.32,360.492 1011.32,360.826 1019.5,360.5C 996.476,364.261 975.143,359.761 955.5,347C 940.296,334.123 933.963,317.956 936.5,298.5 Z" /></g>
<g><path style="opacity:0.353" fill="#b5c2cf" d="M 409.5,201.5 C 410.167,201.5 410.5,201.833 410.5,202.5C 399.151,233.551 387.818,264.551 376.5,295.5C 367.687,315.589 360.021,336.256 353.5,357.5C 367.01,357.829 380.344,357.496 393.5,356.5C 398.506,344.461 403.006,332.128 407,319.5C 408.292,318.209 409.458,318.209 410.5,319.5C 405.401,331.19 400.901,343.19 397,355.5C 396.535,356.931 395.701,358.097 394.5,359C 380.5,359.667 366.5,359.667 352.5,359C 351.941,358.275 351.608,357.442 351.5,356.5C 358.816,332.55 367.649,309.216 378,286.5C 387.861,257.731 398.361,229.398 409.5,201.5 Z" /></g>
<g><path style="opacity:0.808" fill="#204c83" d="M 1027.5,282.5 C 1028.55,282.351 1029.55,282.517 1030.5,283C 1031.62,285.124 1033.12,286.957 1035,288.5C 1037.94,296.706 1038.28,305.04 1036,313.5C 1028.03,327.624 1015.87,333.124 999.5,330C 982.679,326.685 974.012,316.519 973.5,299.5C 961.833,299.5 950.167,299.5 938.5,299.5C 938.287,312.616 941.787,324.616 949,335.5C 957.391,344.408 967.224,351.074 978.5,355.5C 973.19,354.563 968.19,352.729 963.5,350C 945.385,337.603 936.385,320.436 936.5,298.5C 936.5,297.833 936.833,297.5 937.5,297.5C 945.833,297.5 954.167,297.5 962.5,297.5C 967.032,297.182 971.366,297.515 975.5,298.5C 974.47,314.682 982.137,324.515 998.5,328C 1003.17,328.667 1007.83,328.667 1012.5,328C 1013.74,327.768 1014.74,327.268 1015.5,326.5C 1015.83,326.5 1016.17,326.5 1016.5,326.5C 1023.48,325.592 1028.98,322.259 1033,316.5C 1039.1,303.727 1037.26,292.393 1027.5,282.5 Z" /></g>
<g><path style="opacity:0.165" fill="#b6c5d5" d="M 975.5,298.5 C 979.149,321.032 992.482,330.365 1015.5,326.5C 1014.74,327.268 1013.74,327.768 1012.5,328C 1007.83,328.667 1003.17,328.667 998.5,328C 982.137,324.515 974.47,314.682 975.5,298.5 Z" /></g>
<g><path style="opacity:0.788" fill="#22538f" d="M 1199.5,217.5 C 1198.83,217.5 1198.17,217.5 1197.5,217.5C 1195.98,214.636 1193.64,212.969 1190.5,212.5C 1184.47,207.764 1177.47,205.264 1169.5,205C 1157.5,204.5 1145.5,204.333 1133.5,204.5C 1133.5,209.167 1133.5,213.833 1133.5,218.5C 1133.5,220.5 1133.5,222.5 1133.5,224.5C 1133.5,257.5 1133.5,290.5 1133.5,323.5C 1144.35,323.828 1155.01,323.494 1165.5,322.5C 1188.71,321.571 1204.71,310.571 1213.5,289.5C 1212.32,293.877 1210.82,298.21 1209,302.5C 1193.83,319.582 1174.83,327.249 1152,325.5C 1145.09,325.479 1138.43,324.812 1132,323.5C 1131.33,283.5 1131.33,243.5 1132,203.5C 1147.51,201.948 1163.01,202.448 1178.5,205C 1183.74,206.413 1188.74,208.413 1193.5,211C 1196.3,212.451 1198.3,214.618 1199.5,217.5 Z" /></g>
<g><path style="opacity:0.035" fill="#c8d0d8" d="M 1190.5,212.5 C 1193.64,212.969 1195.98,214.636 1197.5,217.5C 1194.88,216.214 1192.55,214.547 1190.5,212.5 Z" /></g>
<g><path style="opacity:0.788" fill="#1e477b" d="M 487.5,327.5 C 485.895,324.88 484.562,322.047 483.5,319C 478.845,318.501 474.179,318.334 469.5,318.5C 449.757,318.179 430.091,318.513 410.5,319.5C 409.458,318.209 408.292,318.209 407,319.5C 403.006,332.128 398.506,344.461 393.5,356.5C 396.932,343.039 401.265,329.872 406.5,317C 432.167,316.333 457.833,316.333 483.5,317C 485.712,320.134 487.046,323.634 487.5,327.5 Z" /></g>
<g><path style="opacity:0.141" fill="#c7d6e5" d="M 600.5,330.5 C 606.145,331.134 611.811,331.468 617.5,331.5C 615.359,332.163 613.025,332.497 610.5,332.5C 606.859,332.685 603.526,332.019 600.5,330.5 Z" /></g>
<g><path style="opacity:0.22" fill="#9eb1c8" d="M 776.5,322.5 C 765.018,333.537 751.685,336.704 736.5,332C 728.342,327.149 725.509,319.983 728,310.5C 731.364,305.971 735.197,301.971 739.5,298.5C 753.662,295.733 767.995,294.733 782.5,295.5C 782.666,301.509 782.499,307.509 782,313.5C 780.657,316.862 778.824,319.862 776.5,322.5 Z M 751.5,297.5 C 745.9,298.762 740.566,300.928 735.5,304C 727.838,311.818 727.504,319.984 734.5,328.5C 754.215,335.65 769.715,330.317 781,312.5C 781.499,307.511 781.666,302.511 781.5,297.5C 771.5,297.5 761.5,297.5 751.5,297.5 Z" /></g>
<g><path style="opacity:0.047" fill="#bac5d0" d="M 503.5,269.5 C 513.509,296.027 524.009,322.361 535,348.5C 535.833,351 536.667,353.5 537.5,356C 537.43,356.765 537.097,357.265 536.5,357.5C 535.167,354.5 533.833,351.5 532.5,348.5C 530.305,341.357 527.305,334.69 523.5,328.5C 516.576,309.283 509.576,289.95 502.5,270.5C 502.624,269.893 502.957,269.56 503.5,269.5 Z" /></g>
<g><path style="opacity:0.616" fill="#255995" d="M 664.5,293.5 C 668.222,296.943 670.389,301.277 671,306.5C 673.308,322.333 668.475,335.333 656.5,345.5C 660.145,340.894 663.311,335.894 666,330.5C 669.691,317.911 669.191,305.578 664.5,293.5 Z" /></g>
<g><path style="opacity:0.282" fill="#b6c3d1" d="M 469.5,318.5 C 474.179,318.334 478.845,318.501 483.5,319C 484.562,322.047 485.895,324.88 487.5,327.5C 487.733,330.542 488.733,333.208 490.5,335.5C 492.09,343.107 494.756,350.273 498.5,357C 510.875,356.85 522.875,357.683 534.5,359.5C 522.116,359.813 509.783,359.48 497.5,358.5C 492.031,346.229 486.865,333.896 482,321.5C 477.59,321.057 473.423,320.057 469.5,318.5 Z" /></g>
<g><path style="opacity:0.098" fill="#aebecf" d="M 606.5,270.5 C 623.306,272.361 639.639,276.194 655.5,282C 671.084,292.399 676.584,306.899 672,325.5C 666.358,342.474 654.858,353.307 637.5,358C 629.179,360.844 620.846,361.677 612.5,360.5C 623.686,359.457 634.686,356.957 645.5,353C 648.649,351.338 651.649,349.505 654.5,347.5C 655.5,347.167 656.167,346.5 656.5,345.5C 668.475,335.333 673.308,322.333 671,306.5C 670.389,301.277 668.222,296.943 664.5,293.5C 663.797,291.284 662.464,289.451 660.5,288C 657.167,286 653.833,284 650.5,282C 637.104,277.822 623.438,274.822 609.5,273C 608.429,272.148 607.429,271.315 606.5,270.5 Z" /></g>
<g><path style="opacity:0.086" fill="#7c8ea2" d="M 45.5,345.5 C 56.4691,349.655 67.1358,354.322 77.5,359.5C 65.9711,356.393 55.3045,351.726 45.5,345.5 Z" /></g>
<g><path style="opacity:0.145" fill="#b5c3d1" d="M 546.5,316.5 C 546.322,320.122 546.989,323.456 548.5,326.5C 548.66,328.153 549.326,329.486 550.5,330.5C 551.307,334.621 553.307,337.954 556.5,340.5C 565.602,351.274 577.268,357.441 591.5,359C 596.78,360.095 602.113,360.595 607.5,360.5C 591.447,362.239 576.447,358.739 562.5,350C 552.888,341.905 546.888,331.739 544.5,319.5C 544.453,317.962 545.12,316.962 546.5,316.5 Z" /></g>
<g><path style="opacity:0.831" fill="#28558e" d="M 711.5,284.5 C 707.645,287.698 703.812,291.031 700,294.5C 697.19,298.453 695.19,302.787 694,307.5C 689.098,326.539 694.598,341.372 710.5,352C 728.48,360.665 746.48,360.665 764.5,352C 770.697,347.624 776.364,342.791 781.5,337.5C 772.206,351.155 759.206,358.655 742.5,360C 735.491,360.423 728.491,360.256 721.5,359.5C 692.388,347.883 683.388,327.216 694.5,297.5C 697.582,294.93 700.582,292.097 703.5,289C 706.059,287.223 708.726,285.723 711.5,284.5 Z" /></g>
<g><path style="opacity:0.18" fill="#b8c5d1" d="M 694.5,297.5 C 683.388,327.216 692.388,347.883 721.5,359.5C 695.589,352.374 684.756,335.374 689,308.5C 689.426,304.01 691.259,300.344 694.5,297.5 Z" /></g>
<g><path style="opacity:0.765" fill="#194b87" d="M 556.5,340.5 C 568.669,351.288 583.003,357.121 599.5,358C 618.843,360.162 636.843,356.329 653.5,346.5C 654.107,346.624 654.44,346.957 654.5,347.5C 651.649,349.505 648.649,351.338 645.5,353C 634.686,356.957 623.686,359.457 612.5,360.5C 610.833,360.5 609.167,360.5 607.5,360.5C 602.113,360.595 596.78,360.095 591.5,359C 577.268,357.441 565.602,351.274 556.5,340.5 Z" /></g>
<g><path style="opacity:0.745" fill="#24538d" d="M 490.5,335.5 C 491.79,336.058 492.623,337.058 493,338.5C 494.944,344.165 496.778,349.832 498.5,355.5C 509.833,355.5 521.167,355.5 532.5,355.5C 532.5,353.167 532.5,350.833 532.5,348.5C 533.833,351.5 535.167,354.5 536.5,357.5C 536.167,358.5 535.5,359.167 534.5,359.5C 522.875,357.683 510.875,356.85 498.5,357C 494.756,350.273 492.09,343.107 490.5,335.5 Z" /></g>
<g><path style="opacity:0.745" fill="#1e4f89" d="M 1096.5,170.5 C 1120.84,170.333 1145.17,170.5 1169.5,171C 1176.77,171.358 1183.77,172.525 1190.5,174.5C 1159.62,172.893 1128.62,172.226 1097.5,172.5C 1097.5,233.5 1097.5,294.5 1097.5,355.5C 1124.5,355.667 1151.5,355.5 1178.5,355C 1204.55,352.152 1225.22,340.319 1240.5,319.5C 1238.27,323.612 1235.77,327.612 1233,331.5C 1215.19,348 1194.02,356.5 1169.5,357C 1145.17,357.5 1120.84,357.667 1096.5,357.5C 1096.5,295.167 1096.5,232.833 1096.5,170.5 Z" /></g>
<g><path style="opacity:0.486" fill="#aec1d3" d="M 816.5,263.5 C 817.167,288.5 817.833,313.5 818.5,338.5C 819.166,344.47 819.833,350.47 820.5,356.5C 819.91,357.799 818.91,358.632 817.5,359C 806.5,359.667 795.5,359.667 784.5,359C 784,358.5 783.5,358 783,357.5C 782.005,352.547 781.338,347.547 781,342.5C 764.53,360.047 744.697,365.713 721.5,359.5C 728.491,360.256 735.491,360.423 742.5,360C 759.206,358.655 772.206,351.155 781.5,337.5C 781.833,337.5 782.167,337.5 782.5,337.5C 782.231,343.948 782.898,350.282 784.5,356.5C 795.48,357.499 806.48,357.832 817.5,357.5C 816.546,326.185 816.212,294.851 816.5,263.5 Z" /></g>
<g><path style="opacity:0.506" fill="#6c89a8" d="M 1030.5,357.5 C 1029.5,358.167 1028.5,358.833 1027.5,359.5C 1025.05,360.473 1022.39,360.806 1019.5,360.5C 1011.32,360.826 1003.32,360.492 995.5,359.5C 1007.24,359.858 1018.91,359.192 1030.5,357.5 Z" /></g>
<g><path style="opacity:0.067" fill="#7a8ca0" d="M 328.5,183.5 C 329.665,240.332 329.832,297.332 329,354.5C 327.127,356.709 324.96,358.542 322.5,360C 297.907,370.8 273.24,381.3 248.5,391.5C 273.294,379.277 298.628,367.777 324.5,357C 325.758,355.259 326.758,353.426 327.5,351.5C 328.499,295.669 328.832,239.669 328.5,183.5 Z" /></g>
<g><path style="opacity:0.753" fill="#7a8fa9" d="M 29.5,360.5 C 43.8721,365.241 57.8721,371.074 71.5,378C 74.5755,378.346 77.5755,379.012 80.5,380C 93.6551,386.779 106.988,393.279 120.5,399.5C 89.5453,387.852 59.212,374.852 29.5,360.5 Z" /></g>
<g><path style="opacity:0.149" fill="#7f8c9b" d="M 185.5,261.5 C 186.5,261.5 187.5,261.5 188.5,261.5C 187.878,262.627 187.045,263.627 186,264.5C 185.5,308.499 185.333,352.499 185.5,396.5C 215.051,383.558 244.717,370.891 274.5,358.5C 245.966,371.744 217.3,384.91 188.5,398C 187.207,398.49 185.873,398.657 184.5,398.5C 184.172,352.761 184.505,307.095 185.5,261.5 Z" /></g>
<g><path style="opacity:0.125" fill="#8290a3" d="M 162.5,261.5 C 164.017,261.511 165.184,262.177 166,263.5C 166.5,308.499 166.667,353.499 166.5,398.5C 165.399,399.598 164.066,399.765 162.5,399C 144.387,389.614 125.72,381.281 106.5,374C 96.4635,369.618 86.7968,364.785 77.5,359.5C 106.393,372.022 135.393,384.355 164.5,396.5C 165.667,352.504 165.833,308.504 165,264.5C 163.955,263.627 163.122,262.627 162.5,261.5 Z" /></g>
<g><path style="opacity:0.929" fill="#748ead" d="M 120.5,399.5 C 121.873,399.343 123.207,399.51 124.5,400C 134.236,404.866 144.236,409.2 154.5,413C 156.093,413.949 157.426,415.115 158.5,416.5C 145.387,411.584 132.721,405.917 120.5,399.5 Z" /></g>
<g><path style="opacity:1" fill="#6082ae" d="M 248.5,391.5 C 226.026,401.942 203.359,412.109 180.5,422C 172.459,422.703 165.126,420.87 158.5,416.5C 163.618,415.889 168.285,417.056 172.5,420C 177.379,419.922 182.046,418.589 186.5,416C 195.955,414.635 204.289,410.969 211.5,405C 218.034,402.796 224.368,400.129 230.5,397C 236.628,395.428 242.628,393.594 248.5,391.5 Z" /></g>
</svg>